<svg xmlns="http://www.w3.org/2000/svg" width="300" height="300">
  <defs>
    <g id="rose" fill="currentColor">
      <path d="M0 0 C -14 -18, -24 -10, -12 0 C -6 4, -3 2, 0 0" opacity=".12"/>
      <path d="M0 0 C 14 -18, 24 -10, 12 0 C 6 4, 3 2, 0 0" opacity=".12"/>
      <path d="M0 0 C -16 10, -10 22, 0 14 C 5 10, 3 4, 0 0" opacity=".12"/>
      <path d="M0 0 C 16 10, 10 22, 0 14 C -5 10, -3 4, 0 0" opacity=".12"/>
      <path d="M0 0 C -8 -12, -16 -6, -8 2 C -4 5, -2 2, 0 0" opacity=".18"/>
      <path d="M0 0 C 8 -12, 16 -6, 8 2 C 4 5, 2 2, 0 0" opacity=".18"/>
      <path d="M0 0 C -10 6, -6 16, 0 10 C 4 7, 2 3, 0 0" opacity=".18"/>
      <path d="M0 0 C 10 6, 6 16, 0 10 C -4 7, -2 3, 0 0" opacity=".18"/>
      <path d="M0 0 C -4 -6, -8 -3, -4 1 C -2 3, -1 1, 0 0" opacity=".25"/>
      <path d="M0 0 C 4 -6, 8 -3, 4 1 C 2 3, 1 1, 0 0" opacity=".25"/>
      <path d="M0 0 C -6 4, -3 10, 0 6 C 2 4, 1 2, 0 0" opacity=".25"/>
      <path d="M0 0 C 6 4, 3 10, 0 6 C -2 4, -1 2, 0 0" opacity=".25"/>
      <circle cx="0" cy="0" r="2.5" opacity=".3"/>
      <path d="M-1 -1 Q 1 -2, 1.5 0 Q 1 1.5, 0 0.5" fill="none" stroke="currentColor" stroke-width="0.6" opacity=".35"/>
    </g>
  </defs>
  <g opacity=".85">
    <use href="#rose" transform="translate(150, 150) scale(2.2)"/>
    <use href="#rose" transform="translate(40, 40) scale(1.6)"/>
    <use href="#rose" transform="translate(260, 40) scale(1.4)"/>
    <use href="#rose" transform="translate(40, 260) scale(1.5)"/>
    <use href="#rose" transform="translate(260, 260) scale(1.3)"/>
    <use href="#rose" transform="translate(150, 30) scale(.9)"/>
    <use href="#rose" transform="translate(150, 270) scale(1)"/>
    <use href="#rose" transform="translate(30, 150) scale(.8)"/>
    <use href="#rose" transform="translate(270, 150) scale(.9)"/>
    <use href="#rose" transform="translate(80, 150) scale(.6)"/>
    <use href="#rose" transform="translate(220, 150) scale(.55)"/>
    <use href="#rose" transform="translate(150, 80) scale(.5)"/>
    <use href="#rose" transform="translate(150, 220) scale(.6)"/>
  </g>
</svg>
