<svg xmlns="http://www.w3.org/2000/svg" width="800" height="800" viewBox="0 0 800 800">
<defs>
  <filter id="g" x="-50%" y="-50%" width="200%" height="200%">
    <feGaussianBlur stdDeviation="3" result="b"/>
    <feMerge><feMergeNode in="b"/><feMergeNode in="SourceGraphic"/></feMerge>
  </filter>
  <filter id="sg" x="-50%" y="-50%" width="200%" height="200%">
    <feGaussianBlur stdDeviation="7" result="b"/>
    <feMerge><feMergeNode in="b"/><feMergeNode in="SourceGraphic"/></feMerge>
  </filter>
</defs><g><circle cx="511.5" cy="20.0" r="0.7" fill="rgba(255,255,255,0.06)"/><circle cx="589.2" cy="541.4" r="1.6" fill="rgba(255,255,255,0.05)"/><circle cx="337.5" cy="23.8" r="0.6" fill="rgba(255,255,255,0.10)"/><circle cx="21.2" cy="159.1" r="1.3" fill="rgba(255,255,255,0.10)"/><circle cx="176.4" cy="471.4" r="1.5" fill="rgba(255,255,255,0.04)"/><circle cx="644.7" cy="558.5" r="0.8" fill="rgba(255,255,255,0.06)"/><circle cx="765.8" cy="269.3" r="0.4" fill="rgba(255,255,255,0.05)"/><circle cx="678.0" cy="483.0" r="1.5" fill="rgba(255,255,255,0.12)"/><circle cx="429.0" cy="778.5" r="0.9" fill="rgba(255,255,255,0.10)"/><circle cx="663.5" cy="494.8" r="1.6" fill="rgba(255,255,255,0.10)"/><circle cx="563.7" cy="36.7" r="0.6" fill="rgba(255,255,255,0.07)"/><circle cx="63.8" cy="186.2" r="0.5" fill="rgba(255,255,255,0.07)"/><circle cx="508.5" cy="291.9" r="0.9" fill="rgba(255,255,255,0.06)"/><circle cx="213.6" cy="749.3" r="1.3" fill="rgba(255,255,255,0.11)"/><circle cx="136.9" cy="583.3" r="0.5" fill="rgba(255,255,255,0.08)"/><circle cx="791.6" cy="512.0" r="1.1" fill="rgba(255,255,255,0.12)"/><circle cx="674.3" cy="620.8" r="0.6" fill="rgba(255,255,255,0.04)"/><circle cx="252.4" cy="214.2" r="0.6" fill="rgba(255,255,255,0.14)"/><circle cx="701.1" cy="251.7" r="1.3" fill="rgba(255,255,255,0.08)"/><circle cx="731.6" cy="367.1" r="0.7" fill="rgba(255,255,255,0.07)"/><circle cx="449.1" cy="210.2" r="1.2" fill="rgba(255,255,255,0.14)"/><circle cx="319.5" cy="175.5" r="1.8" fill="rgba(255,255,255,0.10)"/><circle cx="72.7" cy="37.7" r="0.5" fill="rgba(255,255,255,0.11)"/><circle cx="633.7" cy="337.7" r="0.4" fill="rgba(255,255,255,0.08)"/><circle cx="796.9" cy="423.3" r="1.8" fill="rgba(255,255,255,0.13)"/><circle cx="9.2" cy="576.6" r="1.3" fill="rgba(255,255,255,0.10)"/><circle cx="213.5" cy="512.8" r="0.5" fill="rgba(255,255,255,0.09)"/><circle cx="363.0" cy="763.1" r="1.6" fill="rgba(255,255,255,0.07)"/><circle cx="400.5" cy="142.9" r="1.7" fill="rgba(255,255,255,0.14)"/><circle cx="238.8" cy="511.2" r="1.2" fill="rgba(255,255,255,0.06)"/><circle cx="610.0" cy="431.5" r="1.5" fill="rgba(255,255,255,0.10)"/><circle cx="0.5" cy="259.3" r="0.3" fill="rgba(255,255,255,0.14)"/><circle cx="703.0" cy="665.3" r="0.8" fill="rgba(255,255,255,0.05)"/><circle cx="702.4" cy="757.6" r="0.4" fill="rgba(255,255,255,0.09)"/><circle cx="55.4" cy="608.5" r="1.4" fill="rgba(255,255,255,0.05)"/><circle cx="380.2" cy="439.8" r="0.7" fill="rgba(255,255,255,0.14)"/><circle cx="338.5" cy="169.4" r="1.1" fill="rgba(255,255,255,0.12)"/><circle cx="160.9" cy="249.4" r="1.8" fill="rgba(255,255,255,0.11)"/><circle cx="350.5" cy="414.1" r="0.5" fill="rgba(255,255,255,0.06)"/><circle cx="270.5" cy="470.6" r="0.6" fill="rgba(255,255,255,0.06)"/><circle cx="56.8" cy="504.9" r="0.6" fill="rgba(255,255,255,0.14)"/><circle cx="687.7" cy="56.7" r="0.7" fill="rgba(255,255,255,0.11)"/><circle cx="171.4" cy="105.8" r="1.7" fill="rgba(255,255,255,0.10)"/><circle cx="378.1" cy="627.7" r="1.5" fill="rgba(255,255,255,0.06)"/><circle cx="77.5" cy="344.8" r="0.9" fill="rgba(255,255,255,0.09)"/><circle cx="583.3" cy="538.7" r="1.8" fill="rgba(255,255,255,0.05)"/><circle cx="322.1" cy="271.4" r="1.6" fill="rgba(255,255,255,0.07)"/><circle cx="152.2" cy="358.9" r="0.9" fill="rgba(255,255,255,0.07)"/><circle cx="199.8" cy="738.6" r="1.0" fill="rgba(255,255,255,0.13)"/><circle cx="440.3" cy="40.5" r="1.8" fill="rgba(255,255,255,0.13)"/><circle cx="775.2" cy="741.1" r="1.6" fill="rgba(255,255,255,0.06)"/><circle cx="388.5" cy="171.0" r="0.9" fill="rgba(255,255,255,0.05)"/><circle cx="303.2" cy="788.2" r="0.7" fill="rgba(255,255,255,0.13)"/><circle cx="364.0" cy="338.4" r="1.7" fill="rgba(255,255,255,0.15)"/><circle cx="444.6" cy="574.7" r="0.5" fill="rgba(255,255,255,0.07)"/><circle cx="775.0" cy="463.3" r="1.1" fill="rgba(255,255,255,0.12)"/><circle cx="45.7" cy="467.3" r="1.1" fill="rgba(255,255,255,0.13)"/><circle cx="125.9" cy="768.6" r="0.4" fill="rgba(255,255,255,0.06)"/><circle cx="476.0" cy="540.2" r="0.7" fill="rgba(255,255,255,0.05)"/><circle cx="712.2" cy="197.0" r="1.2" fill="rgba(255,255,255,0.11)"/><circle cx="335.4" cy="466.9" r="1.1" fill="rgba(255,255,255,0.14)"/><circle cx="163.4" cy="573.0" r="0.7" fill="rgba(255,255,255,0.08)"/><circle cx="537.4" cy="240.0" r="0.8" fill="rgba(255,255,255,0.12)"/><circle cx="58.0" cy="366.6" r="1.8" fill="rgba(255,255,255,0.15)"/><circle cx="58.6" cy="170.5" r="0.7" fill="rgba(255,255,255,0.14)"/><circle cx="704.7" cy="703.4" r="0.9" fill="rgba(255,255,255,0.06)"/><circle cx="667.0" cy="562.8" r="1.2" fill="rgba(255,255,255,0.15)"/><circle cx="523.2" cy="6.3" r="1.5" fill="rgba(255,255,255,0.07)"/><circle cx="530.7" cy="751.1" r="0.5" fill="rgba(255,255,255,0.05)"/><circle cx="85.6" cy="442.6" r="0.7" fill="rgba(255,255,255,0.11)"/><circle cx="574.1" cy="162.9" r="1.3" fill="rgba(255,255,255,0.07)"/><circle cx="390.8" cy="724.3" r="1.6" fill="rgba(255,255,255,0.05)"/><circle cx="338.9" cy="221.3" r="0.3" fill="rgba(255,255,255,0.12)"/><circle cx="509.7" cy="209.6" r="1.4" fill="rgba(255,255,255,0.10)"/><circle cx="342.1" cy="7.7" r="0.4" fill="rgba(255,255,255,0.14)"/><circle cx="723.1" cy="436.5" r="1.6" fill="rgba(255,255,255,0.10)"/><circle cx="118.5" cy="102.0" r="0.8" fill="rgba(255,255,255,0.14)"/><circle cx="636.9" cy="688.6" r="1.6" fill="rgba(255,255,255,0.06)"/><circle cx="199.6" cy="82.2" r="1.5" fill="rgba(255,255,255,0.14)"/><circle cx="325.1" cy="496.5" r="0.5" fill="rgba(255,255,255,0.14)"/><circle cx="691.7" cy="781.0" r="1.5" fill="rgba(255,255,255,0.14)"/><circle cx="19.8" cy="589.3" r="0.8" fill="rgba(255,255,255,0.14)"/><circle cx="641.8" cy="691.3" r="1.5" fill="rgba(255,255,255,0.07)"/><circle cx="629.9" cy="86.5" r="1.6" fill="rgba(255,255,255,0.13)"/><circle cx="177.9" cy="653.3" r="1.0" fill="rgba(255,255,255,0.07)"/><circle cx="636.3" cy="182.1" r="0.3" fill="rgba(255,255,255,0.06)"/><circle cx="262.6" cy="691.5" r="1.8" fill="rgba(255,255,255,0.07)"/><circle cx="513.2" cy="319.7" r="1.8" fill="rgba(255,255,255,0.10)"/><circle cx="751.4" cy="92.3" r="1.8" fill="rgba(255,255,255,0.06)"/><circle cx="770.0" cy="212.4" r="0.5" fill="rgba(255,255,255,0.09)"/><circle cx="582.8" cy="250.9" r="1.2" fill="rgba(255,255,255,0.10)"/><circle cx="308.2" cy="461.3" r="0.7" fill="rgba(255,255,255,0.12)"/><circle cx="1.4" cy="740.5" r="1.1" fill="rgba(255,255,255,0.12)"/><circle cx="593.6" cy="536.5" r="0.8" fill="rgba(255,255,255,0.05)"/><circle cx="531.4" cy="264.2" r="0.8" fill="rgba(255,255,255,0.13)"/><circle cx="575.8" cy="240.3" r="0.8" fill="rgba(255,255,255,0.08)"/><circle cx="321.9" cy="236.5" r="0.5" fill="rgba(255,255,255,0.09)"/><circle cx="752.3" cy="541.9" r="1.7" fill="rgba(255,255,255,0.11)"/><circle cx="240.8" cy="438.3" r="0.3" fill="rgba(255,255,255,0.07)"/><circle cx="343.9" cy="464.0" r="1.3" fill="rgba(255,255,255,0.09)"/><circle cx="353.7" cy="171.0" r="1.0" fill="rgba(255,255,255,0.14)"/><circle cx="636.8" cy="135.8" r="0.4" fill="rgba(255,255,255,0.10)"/><circle cx="506.4" cy="268.2" r="1.5" fill="rgba(255,255,255,0.12)"/><circle cx="538.2" cy="179.7" r="0.6" fill="rgba(255,255,255,0.04)"/><circle cx="195.9" cy="380.1" r="1.6" fill="rgba(255,255,255,0.05)"/><circle cx="331.6" cy="503.8" r="0.6" fill="rgba(255,255,255,0.12)"/><circle cx="395.5" cy="195.2" r="1.3" fill="rgba(255,255,255,0.04)"/><circle cx="600.8" cy="616.0" r="0.5" fill="rgba(255,255,255,0.09)"/><circle cx="140.7" cy="766.4" r="1.1" fill="rgba(255,255,255,0.05)"/><circle cx="199.4" cy="678.7" r="1.0" fill="rgba(255,255,255,0.13)"/><circle cx="534.1" cy="790.3" r="1.2" fill="rgba(255,255,255,0.14)"/><circle cx="713.1" cy="490.1" r="1.4" fill="rgba(255,255,255,0.10)"/><circle cx="664.5" cy="438.3" r="1.6" fill="rgba(255,255,255,0.12)"/><circle cx="379.7" cy="207.4" r="0.7" fill="rgba(255,255,255,0.11)"/><circle cx="612.7" cy="417.0" r="1.2" fill="rgba(255,255,255,0.07)"/><circle cx="62.0" cy="228.6" r="0.7" fill="rgba(255,255,255,0.08)"/><circle cx="432.1" cy="110.7" r="0.6" fill="rgba(255,255,255,0.12)"/><circle cx="565.1" cy="51.4" r="0.9" fill="rgba(255,255,255,0.10)"/><circle cx="332.6" cy="165.5" r="0.9" fill="rgba(255,255,255,0.14)"/><circle cx="467.3" cy="556.4" r="1.6" fill="rgba(255,255,255,0.12)"/><circle cx="304.3" cy="4.7" r="0.8" fill="rgba(255,255,255,0.12)"/><circle cx="682.8" cy="762.7" r="0.9" fill="rgba(255,255,255,0.12)"/><circle cx="436.9" cy="482.6" r="0.6" fill="rgba(255,255,255,0.06)"/><circle cx="348.7" cy="23.2" r="0.8" fill="rgba(255,255,255,0.11)"/><circle cx="323.5" cy="132.0" r="1.0" fill="rgba(255,255,255,0.05)"/><circle cx="497.8" cy="21.6" r="0.9" fill="rgba(255,255,255,0.10)"/><circle cx="21.7" cy="514.2" r="0.5" fill="rgba(255,255,255,0.09)"/><circle cx="40.2" cy="303.3" r="0.6" fill="rgba(255,255,255,0.08)"/><circle cx="609.0" cy="303.3" r="1.4" fill="rgba(255,255,255,0.13)"/><circle cx="201.8" cy="65.5" r="0.3" fill="rgba(255,255,255,0.10)"/><circle cx="799.9" cy="280.0" r="1.3" fill="rgba(255,255,255,0.13)"/><circle cx="521.4" cy="603.4" r="1.7" fill="rgba(255,255,255,0.06)"/><circle cx="16.3" cy="121.9" r="0.5" fill="rgba(255,255,255,0.11)"/><circle cx="451.2" cy="174.4" r="1.3" fill="rgba(255,255,255,0.12)"/><circle cx="134.2" cy="485.8" r="1.4" fill="rgba(255,255,255,0.05)"/><circle cx="655.4" cy="771.8" r="0.5" fill="rgba(255,255,255,0.04)"/><circle cx="249.6" cy="541.9" r="1.7" fill="rgba(255,255,255,0.08)"/><circle cx="572.0" cy="60.8" r="1.3" fill="rgba(255,255,255,0.11)"/><circle cx="81.5" cy="618.0" r="1.6" fill="rgba(255,255,255,0.11)"/><circle cx="96.8" cy="787.1" r="1.5" fill="rgba(255,255,255,0.08)"/><circle cx="342.7" cy="296.5" r="1.1" fill="rgba(255,255,255,0.08)"/><circle cx="679.7" cy="657.9" r="0.5" fill="rgba(255,255,255,0.15)"/><circle cx="508.5" cy="663.0" r="1.4" fill="rgba(255,255,255,0.09)"/><circle cx="587.0" cy="772.4" r="0.7" fill="rgba(255,255,255,0.13)"/><circle cx="430.5" cy="386.8" r="1.0" fill="rgba(255,255,255,0.12)"/><circle cx="214.7" cy="681.4" r="1.5" fill="rgba(255,255,255,0.05)"/><circle cx="705.3" cy="195.1" r="1.0" fill="rgba(255,255,255,0.11)"/><circle cx="303.2" cy="23.0" r="1.6" fill="rgba(255,255,255,0.06)"/><circle cx="169.7" cy="638.3" r="0.8" fill="rgba(255,255,255,0.14)"/><circle cx="560.9" cy="221.0" r="0.3" fill="rgba(255,255,255,0.14)"/><circle cx="68.5" cy="576.1" r="1.0" fill="rgba(255,255,255,0.12)"/><circle cx="552.5" cy="516.7" r="1.0" fill="rgba(255,255,255,0.13)"/><circle cx="74.4" cy="177.3" r="1.3" fill="rgba(255,255,255,0.07)"/><circle cx="465.2" cy="378.6" r="1.1" fill="rgba(255,255,255,0.09)"/><circle cx="596.7" cy="264.6" r="1.4" fill="rgba(255,255,255,0.07)"/><circle cx="201.1" cy="96.5" r="0.6" fill="rgba(255,255,255,0.05)"/><circle cx="428.7" cy="609.8" r="0.6" fill="rgba(255,255,255,0.06)"/><circle cx="387.4" cy="579.7" r="1.8" fill="rgba(255,255,255,0.10)"/><circle cx="226.4" cy="80.4" r="0.6" fill="rgba(255,255,255,0.07)"/><circle cx="143.6" cy="11.3" r="1.1" fill="rgba(255,255,255,0.07)"/><circle cx="779.4" cy="442.7" r="1.3" fill="rgba(255,255,255,0.05)"/><circle cx="694.8" cy="392.7" r="1.6" fill="rgba(255,255,255,0.10)"/><circle cx="375.5" cy="352.4" r="0.6" fill="rgba(255,255,255,0.05)"/><circle cx="752.9" cy="382.2" r="1.5" fill="rgba(255,255,255,0.08)"/><circle cx="59.3" cy="503.6" r="0.4" fill="rgba(255,255,255,0.06)"/><circle cx="450.3" cy="243.1" r="1.8" fill="rgba(255,255,255,0.05)"/><circle cx="611.6" cy="485.1" r="1.5" fill="rgba(255,255,255,0.06)"/><circle cx="418.1" cy="360.4" r="1.0" fill="rgba(255,255,255,0.13)"/><circle cx="792.0" cy="244.3" r="1.2" fill="rgba(255,255,255,0.11)"/><circle cx="592.1" cy="758.1" r="0.6" fill="rgba(255,255,255,0.06)"/><circle cx="528.3" cy="125.6" r="0.6" fill="rgba(255,255,255,0.05)"/><circle cx="2.1" cy="360.4" r="1.2" fill="rgba(255,255,255,0.07)"/><circle cx="185.2" cy="565.6" r="1.4" fill="rgba(255,255,255,0.09)"/><circle cx="549.9" cy="739.1" r="1.5" fill="rgba(255,255,255,0.11)"/><circle cx="528.9" cy="746.9" r="0.9" fill="rgba(255,255,255,0.10)"/><circle cx="518.1" cy="726.7" r="1.5" fill="rgba(255,255,255,0.05)"/><circle cx="132.7" cy="246.1" r="1.4" fill="rgba(255,255,255,0.10)"/><circle cx="230.9" cy="99.5" r="1.3" fill="rgba(255,255,255,0.12)"/><circle cx="754.1" cy="400.4" r="1.0" fill="rgba(255,255,255,0.05)"/><circle cx="31.9" cy="345.6" r="0.8" fill="rgba(255,255,255,0.07)"/><circle cx="73.1" cy="769.5" r="1.6" fill="rgba(255,255,255,0.10)"/><circle cx="760.6" cy="799.7" r="1.3" fill="rgba(255,255,255,0.07)"/><circle cx="32.2" cy="605.0" r="1.0" fill="rgba(255,255,255,0.11)"/><circle cx="732.9" cy="145.2" r="1.2" fill="rgba(255,255,255,0.11)"/><circle cx="393.4" cy="73.0" r="0.8" fill="rgba(255,255,255,0.08)"/><circle cx="536.1" cy="686.2" r="0.8" fill="rgba(255,255,255,0.12)"/><circle cx="230.6" cy="756.2" r="1.5" fill="rgba(255,255,255,0.10)"/><circle cx="363.9" cy="251.6" r="0.8" fill="rgba(255,255,255,0.15)"/><circle cx="323.3" cy="411.7" r="1.8" fill="rgba(255,255,255,0.11)"/><circle cx="434.1" cy="330.6" r="0.6" fill="rgba(255,255,255,0.08)"/><circle cx="605.2" cy="500.3" r="1.4" fill="rgba(255,255,255,0.06)"/><circle cx="439.4" cy="742.1" r="1.0" fill="rgba(255,255,255,0.12)"/><circle cx="97.1" cy="778.5" r="1.2" fill="rgba(255,255,255,0.07)"/><circle cx="126.7" cy="440.7" r="1.1" fill="rgba(255,255,255,0.05)"/><circle cx="793.8" cy="730.3" r="1.0" fill="rgba(255,255,255,0.05)"/><circle cx="665.7" cy="398.7" r="1.4" fill="rgba(255,255,255,0.10)"/><circle cx="218.7" cy="667.8" r="1.8" fill="rgba(255,255,255,0.07)"/><circle cx="441.0" cy="306.9" r="1.7" fill="rgba(255,255,255,0.10)"/><circle cx="703.5" cy="691.2" r="0.7" fill="rgba(255,255,255,0.13)"/><circle cx="332.0" cy="747.4" r="1.1" fill="rgba(255,255,255,0.13)"/><circle cx="226.3" cy="238.8" r="1.2" fill="rgba(255,255,255,0.15)"/><circle cx="391.7" cy="118.9" r="1.1" fill="rgba(255,255,255,0.08)"/><circle cx="441.5" cy="434.7" r="1.0" fill="rgba(255,255,255,0.08)"/><circle cx="150.9" cy="558.0" r="1.2" fill="rgba(255,255,255,0.07)"/><circle cx="620.4" cy="34.9" r="1.4" fill="rgba(255,255,255,0.12)"/><circle cx="649.1" cy="308.9" r="1.3" fill="rgba(255,255,255,0.13)"/><circle cx="784.7" cy="396.3" r="0.4" fill="rgba(255,255,255,0.10)"/><circle cx="472.1" cy="695.8" r="1.6" fill="rgba(255,255,255,0.09)"/><circle cx="420.8" cy="365.5" r="1.4" fill="rgba(255,255,255,0.09)"/><circle cx="523.8" cy="123.5" r="1.0" fill="rgba(255,255,255,0.15)"/><circle cx="270.8" cy="554.2" r="1.3" fill="rgba(255,255,255,0.13)"/><circle cx="681.9" cy="687.5" r="0.9" fill="rgba(255,255,255,0.07)"/><circle cx="575.0" cy="607.5" r="1.6" fill="rgba(255,255,255,0.04)"/><circle cx="54.7" cy="504.9" r="1.7" fill="rgba(255,255,255,0.15)"/><circle cx="597.4" cy="347.2" r="0.4" fill="rgba(255,255,255,0.11)"/><circle cx="698.1" cy="354.9" r="1.3" fill="rgba(255,255,255,0.14)"/><circle cx="36.8" cy="636.9" r="0.7" fill="rgba(255,255,255,0.08)"/><circle cx="116.5" cy="424.9" r="1.1" fill="rgba(255,255,255,0.13)"/><circle cx="136.0" cy="63.2" r="1.6" fill="rgba(255,255,255,0.11)"/><circle cx="192.7" cy="730.3" r="0.5" fill="rgba(255,255,255,0.09)"/><circle cx="203.2" cy="204.3" r="0.3" fill="rgba(255,255,255,0.13)"/><circle cx="721.0" cy="542.1" r="0.5" fill="rgba(255,255,255,0.09)"/><circle cx="276.5" cy="470.1" r="1.3" fill="rgba(255,255,255,0.09)"/><circle cx="200.1" cy="676.2" r="0.6" fill="rgba(255,255,255,0.08)"/><circle cx="386.6" cy="189.8" r="1.2" fill="rgba(255,255,255,0.10)"/><circle cx="794.2" cy="236.2" r="1.8" fill="rgba(255,255,255,0.11)"/><circle cx="219.6" cy="452.7" r="1.3" fill="rgba(255,255,255,0.12)"/><circle cx="39.2" cy="485.1" r="1.0" fill="rgba(255,255,255,0.14)"/><circle cx="229.0" cy="639.1" r="1.2" fill="rgba(255,255,255,0.08)"/><circle cx="509.3" cy="496.7" r="1.3" fill="rgba(255,255,255,0.12)"/><circle cx="527.3" cy="670.7" r="1.2" fill="rgba(255,255,255,0.14)"/><circle cx="517.1" cy="247.1" r="1.0" fill="rgba(255,255,255,0.10)"/><circle cx="585.9" cy="72.1" r="0.7" fill="rgba(255,255,255,0.12)"/><circle cx="140.5" cy="105.7" r="1.1" fill="rgba(255,255,255,0.15)"/><circle cx="424.7" cy="730.8" r="1.5" fill="rgba(255,255,255,0.07)"/><circle cx="659.8" cy="385.5" r="1.5" fill="rgba(255,255,255,0.12)"/><circle cx="271.0" cy="92.1" r="1.7" fill="rgba(255,255,255,0.06)"/><circle cx="773.2" cy="688.1" r="1.4" fill="rgba(255,255,255,0.15)"/><circle cx="773.8" cy="643.7" r="0.8" fill="rgba(255,255,255,0.13)"/><circle cx="11.1" cy="429.3" r="1.0" fill="rgba(255,255,255,0.11)"/><circle cx="537.9" cy="467.6" r="1.5" fill="rgba(255,255,255,0.14)"/><circle cx="86.7" cy="187.1" r="0.3" fill="rgba(255,255,255,0.14)"/><circle cx="449.1" cy="732.2" r="0.6" fill="rgba(255,255,255,0.05)"/><circle cx="659.1" cy="727.5" r="0.8" fill="rgba(255,255,255,0.08)"/><circle cx="111.8" cy="757.0" r="0.8" fill="rgba(255,255,255,0.09)"/><circle cx="77.8" cy="709.8" r="0.5" fill="rgba(255,255,255,0.09)"/><circle cx="536.4" cy="594.5" r="1.7" fill="rgba(255,255,255,0.09)"/><circle cx="593.8" cy="123.6" r="0.9" fill="rgba(255,255,255,0.05)"/><circle cx="391.5" cy="326.5" r="1.7" fill="rgba(255,255,255,0.04)"/><circle cx="296.4" cy="354.7" r="1.7" fill="rgba(255,255,255,0.13)"/><circle cx="79.5" cy="548.5" r="1.1" fill="rgba(255,255,255,0.15)"/><circle cx="286.9" cy="318.5" r="0.6" fill="rgba(255,255,255,0.05)"/><circle cx="678.4" cy="363.8" r="1.3" fill="rgba(255,255,255,0.11)"/><circle cx="477.7" cy="17.1" r="1.5" fill="rgba(255,255,255,0.07)"/><circle cx="100.7" cy="451.7" r="0.4" fill="rgba(255,255,255,0.12)"/><circle cx="165.7" cy="172.8" r="1.6" fill="rgba(255,255,255,0.08)"/><circle cx="118.0" cy="720.4" r="0.3" fill="rgba(255,255,255,0.13)"/><circle cx="115.8" cy="104.0" r="0.7" fill="rgba(255,255,255,0.06)"/><circle cx="528.8" cy="20.6" r="0.3" fill="rgba(255,255,255,0.13)"/><circle cx="190.3" cy="259.0" r="0.6" fill="rgba(255,255,255,0.05)"/><circle cx="593.4" cy="420.9" r="1.4" fill="rgba(255,255,255,0.09)"/><circle cx="622.4" cy="410.6" r="0.5" fill="rgba(255,255,255,0.10)"/><circle cx="756.3" cy="34.7" r="1.5" fill="rgba(255,255,255,0.14)"/><circle cx="417.2" cy="366.4" r="1.7" fill="rgba(255,255,255,0.05)"/><circle cx="383.2" cy="321.3" r="1.3" fill="rgba(255,255,255,0.09)"/><circle cx="727.8" cy="58.8" r="0.4" fill="rgba(255,255,255,0.11)"/><circle cx="52.5" cy="220.0" r="1.2" fill="rgba(255,255,255,0.10)"/><circle cx="260.1" cy="795.7" r="1.1" fill="rgba(255,255,255,0.09)"/><circle cx="484.3" cy="79.3" r="1.4" fill="rgba(255,255,255,0.13)"/><circle cx="520.7" cy="615.2" r="1.4" fill="rgba(255,255,255,0.06)"/><circle cx="361.2" cy="182.8" r="0.8" fill="rgba(255,255,255,0.09)"/><circle cx="332.8" cy="76.1" r="0.9" fill="rgba(255,255,255,0.11)"/><circle cx="299.4" cy="122.1" r="1.7" fill="rgba(255,255,255,0.05)"/><circle cx="665.4" cy="74.6" r="0.4" fill="rgba(255,255,255,0.12)"/><circle cx="649.4" cy="445.1" r="1.2" fill="rgba(255,255,255,0.10)"/><circle cx="263.7" cy="97.8" r="0.8" fill="rgba(255,255,255,0.11)"/><circle cx="600.2" cy="694.5" r="1.4" fill="rgba(255,255,255,0.15)"/><circle cx="480.3" cy="281.3" r="1.2" fill="rgba(255,255,255,0.06)"/><circle cx="525.4" cy="179.4" r="0.5" fill="rgba(255,255,255,0.13)"/><circle cx="294.0" cy="610.1" r="1.2" fill="rgba(255,255,255,0.13)"/><circle cx="676.1" cy="779.6" r="1.5" fill="rgba(255,255,255,0.11)"/><circle cx="514.2" cy="21.0" r="1.7" fill="rgba(255,255,255,0.13)"/><circle cx="214.0" cy="144.3" r="1.4" fill="rgba(255,255,255,0.07)"/><circle cx="271.9" cy="4.9" r="1.6" fill="rgba(255,255,255,0.10)"/><circle cx="320.6" cy="113.5" r="1.2" fill="rgba(255,255,255,0.04)"/><circle cx="596.9" cy="172.1" r="0.9" fill="rgba(255,255,255,0.08)"/><circle cx="296.0" cy="577.3" r="1.5" fill="rgba(255,255,255,0.10)"/><circle cx="68.0" cy="42.1" r="0.5" fill="rgba(255,255,255,0.11)"/><circle cx="539.2" cy="217.7" r="1.3" fill="rgba(255,255,255,0.09)"/><circle cx="353.6" cy="218.5" r="1.4" fill="rgba(255,255,255,0.05)"/><circle cx="343.9" cy="226.6" r="1.3" fill="rgba(255,255,255,0.09)"/><circle cx="533.7" cy="36.3" r="0.9" fill="rgba(255,255,255,0.11)"/><circle cx="6.1" cy="241.1" r="0.6" fill="rgba(255,255,255,0.06)"/><circle cx="204.4" cy="262.5" r="0.3" fill="rgba(255,255,255,0.12)"/><circle cx="140.6" cy="304.2" r="1.4" fill="rgba(255,255,255,0.10)"/><circle cx="666.7" cy="645.0" r="0.4" fill="rgba(255,255,255,0.13)"/><circle cx="33.8" cy="15.0" r="1.7" fill="rgba(255,255,255,0.13)"/><circle cx="460.6" cy="458.7" r="1.4" fill="rgba(255,255,255,0.09)"/><circle cx="92.1" cy="16.7" r="0.8" fill="rgba(255,255,255,0.13)"/><circle cx="494.5" cy="665.6" r="1.7" fill="rgba(255,255,255,0.05)"/></g><g><path d="M 67.9,72.4 68.6,71.1 69.4,69.8 70.4,68.6 71.5,67.5 72.8,66.5 74.1,65.7 75.6,64.9 77.1,64.4 78.8,64.0 80.4,63.7 82.2,63.7 83.9,63.8 85.6,64.1 87.3,64.6 89.0,65.2 90.6,66.1 92.1,67.1 93.5,68.3 94.8,69.7 96.0,71.2 97.0,72.8 97.9,74.6 98.5,76.4 99.0,78.3 99.3,80.3 99.3,82.3 99.2,84.4 98.8,86.4 98.2,88.4 97.4,90.4 96.4,92.2 95.2,94.0 93.8,95.7 92.2,97.2 90.5,98.5 88.6,99.7 86.5,100.7 84.4,101.4 82.2,102.0 79.9,102.3 77.5,102.3 75.2,102.1 72.9,101.7 70.6,101.0 68.3,100.1 66.2,99.0 64.2,97.6 62.3,96.0 60.6,94.2 59.0,92.2 57.7,90.0 56.6,87.7 55.7,85.3 55.1,82.7 54.8,80.1 54.7,77.5 54.9,74.8 55.4,72.2 56.1,69.6 57.2,67.1 58.5,64.7 60.0,62.4 61.8,60.3 63.8,58.3 66.1,56.6 68.5,55.1 71.1,53.8 73.8,52.9 76.6,52.2 79.5,51.8 82.5,51.7 85.4,51.9 88.4,52.4 91.3,53.3 94.1,54.4 96.8,55.8 99.3,57.6 101.7,59.5 103.9,61.8 105.8,64.3 107.5,66.9 108.9,69.8 110.0,72.8 110.7,75.9 111.2,79.1 111.3,82.4 111.1,85.7 110.5,88.9 109.6,92.1 108.4,95.2 106.8,98.2 104.9,101.0 102.8,103.6 100.3,106.0 97.6,108.2 94.7,110.0 91.5,111.6 88.3,112.8 84.8,113.7 81.3,114.2" fill="none" stroke="rgba(255,255,255,0.06)" stroke-width="10" filter="url(#sg)"/><path d="M 67.9,72.4 68.6,71.1 69.4,69.8 70.4,68.6 71.5,67.5 72.8,66.5 74.1,65.7 75.6,64.9 77.1,64.4 78.8,64.0 80.4,63.7 82.2,63.7 83.9,63.8 85.6,64.1 87.3,64.6 89.0,65.2 90.6,66.1 92.1,67.1 93.5,68.3 94.8,69.7 96.0,71.2 97.0,72.8 97.9,74.6 98.5,76.4 99.0,78.3 99.3,80.3 99.3,82.3 99.2,84.4 98.8,86.4 98.2,88.4 97.4,90.4 96.4,92.2 95.2,94.0 93.8,95.7 92.2,97.2 90.5,98.5 88.6,99.7 86.5,100.7 84.4,101.4 82.2,102.0 79.9,102.3 77.5,102.3 75.2,102.1 72.9,101.7 70.6,101.0 68.3,100.1 66.2,99.0 64.2,97.6 62.3,96.0 60.6,94.2 59.0,92.2 57.7,90.0 56.6,87.7 55.7,85.3 55.1,82.7 54.8,80.1 54.7,77.5 54.9,74.8 55.4,72.2 56.1,69.6 57.2,67.1 58.5,64.7 60.0,62.4 61.8,60.3 63.8,58.3 66.1,56.6 68.5,55.1 71.1,53.8 73.8,52.9 76.6,52.2 79.5,51.8 82.5,51.7 85.4,51.9 88.4,52.4 91.3,53.3 94.1,54.4 96.8,55.8 99.3,57.6 101.7,59.5 103.9,61.8 105.8,64.3 107.5,66.9 108.9,69.8 110.0,72.8 110.7,75.9 111.2,79.1 111.3,82.4 111.1,85.7 110.5,88.9 109.6,92.1 108.4,95.2 106.8,98.2 104.9,101.0 102.8,103.6 100.3,106.0 97.6,108.2 94.7,110.0 91.5,111.6 88.3,112.8 84.8,113.7 81.3,114.2" fill="none" stroke="rgba(255,255,255,0.15)" stroke-width="3" filter="url(#g)"/><path d="M 67.9,72.4 68.6,71.1 69.4,69.8 70.4,68.6 71.5,67.5 72.8,66.5 74.1,65.7 75.6,64.9 77.1,64.4 78.8,64.0 80.4,63.7 82.2,63.7 83.9,63.8 85.6,64.1 87.3,64.6 89.0,65.2 90.6,66.1 92.1,67.1 93.5,68.3 94.8,69.7 96.0,71.2 97.0,72.8 97.9,74.6 98.5,76.4 99.0,78.3 99.3,80.3 99.3,82.3 99.2,84.4 98.8,86.4 98.2,88.4 97.4,90.4 96.4,92.2 95.2,94.0 93.8,95.7 92.2,97.2 90.5,98.5 88.6,99.7 86.5,100.7 84.4,101.4 82.2,102.0 79.9,102.3 77.5,102.3 75.2,102.1 72.9,101.7 70.6,101.0 68.3,100.1 66.2,99.0 64.2,97.6 62.3,96.0 60.6,94.2 59.0,92.2 57.7,90.0 56.6,87.7 55.7,85.3 55.1,82.7 54.8,80.1 54.7,77.5 54.9,74.8 55.4,72.2 56.1,69.6 57.2,67.1 58.5,64.7 60.0,62.4 61.8,60.3 63.8,58.3 66.1,56.6 68.5,55.1 71.1,53.8 73.8,52.9 76.6,52.2 79.5,51.8 82.5,51.7 85.4,51.9 88.4,52.4 91.3,53.3 94.1,54.4 96.8,55.8 99.3,57.6 101.7,59.5 103.9,61.8 105.8,64.3 107.5,66.9 108.9,69.8 110.0,72.8 110.7,75.9 111.2,79.1 111.3,82.4 111.1,85.7 110.5,88.9 109.6,92.1 108.4,95.2 106.8,98.2 104.9,101.0 102.8,103.6 100.3,106.0 97.6,108.2 94.7,110.0 91.5,111.6 88.3,112.8 84.8,113.7 81.3,114.2" fill="none" stroke="rgba(255,255,255,0.40)" stroke-width="1.2"/><path d="M 67.9,72.4 68.6,71.1 69.4,69.8 70.4,68.6 71.5,67.5 72.8,66.5 74.1,65.7 75.6,64.9 77.1,64.4 78.8,64.0 80.4,63.7 82.2,63.7 83.9,63.8 85.6,64.1 87.3,64.6 89.0,65.2 90.6,66.1 92.1,67.1 93.5,68.3 94.8,69.7 96.0,71.2 97.0,72.8 97.9,74.6 98.5,76.4 99.0,78.3 99.3,80.3 99.3,82.3 99.2,84.4 98.8,86.4 98.2,88.4 97.4,90.4 96.4,92.2 95.2,94.0 93.8,95.7 92.2,97.2 90.5,98.5 88.6,99.7 86.5,100.7 84.4,101.4 82.2,102.0 79.9,102.3 77.5,102.3 75.2,102.1 72.9,101.7 70.6,101.0 68.3,100.1 66.2,99.0 64.2,97.6 62.3,96.0 60.6,94.2 59.0,92.2 57.7,90.0 56.6,87.7 55.7,85.3 55.1,82.7 54.8,80.1 54.7,77.5 54.9,74.8 55.4,72.2 56.1,69.6 57.2,67.1 58.5,64.7 60.0,62.4 61.8,60.3 63.8,58.3 66.1,56.6 68.5,55.1 71.1,53.8 73.8,52.9 76.6,52.2 79.5,51.8 82.5,51.7 85.4,51.9 88.4,52.4 91.3,53.3 94.1,54.4 96.8,55.8 99.3,57.6 101.7,59.5 103.9,61.8 105.8,64.3 107.5,66.9 108.9,69.8 110.0,72.8 110.7,75.9 111.2,79.1 111.3,82.4 111.1,85.7 110.5,88.9 109.6,92.1 108.4,95.2 106.8,98.2 104.9,101.0 102.8,103.6 100.3,106.0 97.6,108.2 94.7,110.0 91.5,111.6 88.3,112.8 84.8,113.7 81.3,114.2" fill="none" stroke="rgba(220,235,255,0.20)" stroke-width="0.6"/><path d="M 80.0,80.0 C 63.3,49.6 24.3,373.3 50.0,400.0" fill="none" stroke="rgba(255,255,255,0.15)" stroke-width="1.5" filter="url(#g)"/><path d="M 80.0,80.0 C 63.3,49.6 24.3,373.3 50.0,400.0" fill="none" stroke="rgba(255,255,255,0.40)" stroke-width="0.6"/><path d="M 80.0,80.0 C 26.9,81.7 338.2,51.6 400.0,50.0" fill="none" stroke="rgba(255,255,255,0.15)" stroke-width="1.5" filter="url(#g)"/><path d="M 80.0,80.0 C 26.9,81.7 338.2,51.6 400.0,50.0" fill="none" stroke="rgba(255,255,255,0.40)" stroke-width="0.6"/><path d="M 397.6,33.1 399.7,32.6 402.0,32.5 404.2,32.6 406.5,33.0 408.7,33.8 410.9,34.8 412.9,36.1 414.8,37.7 416.4,39.5 417.9,41.6 419.0,43.8 419.9,46.2 420.5,48.8 420.8,51.4 420.7,54.1 420.3,56.7 419.5,59.4 418.4,61.9 416.9,64.3 415.1,66.5 413.1,68.6 410.7,70.3 408.2,71.7 405.4,72.9 402.5,73.6 399.5,74.0 396.4,74.0 393.3,73.6 390.3,72.8 387.3,71.6 384.5,70.1 381.9,68.1 379.5,65.8 377.5,63.3 375.7,60.4 374.3,57.3 373.4,54.0 372.8,50.6 372.7,47.1 373.0,43.6 373.8,40.2 375.0,36.8 376.6,33.6 378.7,30.6 381.2,27.8 384.0,25.4 387.1,23.3 390.5,21.7 394.2,20.4 397.9,19.7 401.8,19.4 405.7,19.6 409.6,20.3 413.4,21.5 417.1,23.2 420.5,25.4 423.6,28.0 426.5,31.1 428.9,34.4 430.9,38.1 432.4,42.1 433.4,46.2 433.9,50.5 433.8,54.8 433.2,59.1 432.0,63.4 430.3,67.5 428.0,71.3 425.3,74.9 422.1,78.1 418.5,80.9 414.5,83.2 410.3,85.1 405.8,86.3 401.1,87.1 396.4,87.2 391.7,86.7 387.0,85.6 382.5,83.9 378.2,81.6 374.1,78.8 370.5,75.4 367.3,71.6 364.6,67.4 362.4,62.9 360.8,58.0 359.9,53.0 359.5,47.9 359.9,42.7 360.8,37.6 362.5,32.7 364.8,27.9 367.6,23.4 371.1,19.4 375.1,15.7 379.5,12.6 384.3,10.1 389.4,8.1 394.8,6.9 400.3,6.3" fill="none" stroke="rgba(255,255,255,0.06)" stroke-width="10" filter="url(#sg)"/><path d="M 397.6,33.1 399.7,32.6 402.0,32.5 404.2,32.6 406.5,33.0 408.7,33.8 410.9,34.8 412.9,36.1 414.8,37.7 416.4,39.5 417.9,41.6 419.0,43.8 419.9,46.2 420.5,48.8 420.8,51.4 420.7,54.1 420.3,56.7 419.5,59.4 418.4,61.9 416.9,64.3 415.1,66.5 413.1,68.6 410.7,70.3 408.2,71.7 405.4,72.9 402.5,73.6 399.5,74.0 396.4,74.0 393.3,73.6 390.3,72.8 387.3,71.6 384.5,70.1 381.9,68.1 379.5,65.8 377.5,63.3 375.7,60.4 374.3,57.3 373.4,54.0 372.8,50.6 372.7,47.1 373.0,43.6 373.8,40.2 375.0,36.8 376.6,33.6 378.7,30.6 381.2,27.8 384.0,25.4 387.1,23.3 390.5,21.7 394.2,20.4 397.9,19.7 401.8,19.4 405.7,19.6 409.6,20.3 413.4,21.5 417.1,23.2 420.5,25.4 423.6,28.0 426.5,31.1 428.9,34.4 430.9,38.1 432.4,42.1 433.4,46.2 433.9,50.5 433.8,54.8 433.2,59.1 432.0,63.4 430.3,67.5 428.0,71.3 425.3,74.9 422.1,78.1 418.5,80.9 414.5,83.2 410.3,85.1 405.8,86.3 401.1,87.1 396.4,87.2 391.7,86.7 387.0,85.6 382.5,83.9 378.2,81.6 374.1,78.8 370.5,75.4 367.3,71.6 364.6,67.4 362.4,62.9 360.8,58.0 359.9,53.0 359.5,47.9 359.9,42.7 360.8,37.6 362.5,32.7 364.8,27.9 367.6,23.4 371.1,19.4 375.1,15.7 379.5,12.6 384.3,10.1 389.4,8.1 394.8,6.9 400.3,6.3" fill="none" stroke="rgba(255,255,255,0.15)" stroke-width="3" filter="url(#g)"/><path d="M 397.6,33.1 399.7,32.6 402.0,32.5 404.2,32.6 406.5,33.0 408.7,33.8 410.9,34.8 412.9,36.1 414.8,37.7 416.4,39.5 417.9,41.6 419.0,43.8 419.9,46.2 420.5,48.8 420.8,51.4 420.7,54.1 420.3,56.7 419.5,59.4 418.4,61.9 416.9,64.3 415.1,66.5 413.1,68.6 410.7,70.3 408.2,71.7 405.4,72.9 402.5,73.6 399.5,74.0 396.4,74.0 393.3,73.6 390.3,72.8 387.3,71.6 384.5,70.1 381.9,68.1 379.5,65.8 377.5,63.3 375.7,60.4 374.3,57.3 373.4,54.0 372.8,50.6 372.7,47.1 373.0,43.6 373.8,40.2 375.0,36.8 376.6,33.6 378.7,30.6 381.2,27.8 384.0,25.4 387.1,23.3 390.5,21.7 394.2,20.4 397.9,19.7 401.8,19.4 405.7,19.6 409.6,20.3 413.4,21.5 417.1,23.2 420.5,25.4 423.6,28.0 426.5,31.1 428.9,34.4 430.9,38.1 432.4,42.1 433.4,46.2 433.9,50.5 433.8,54.8 433.2,59.1 432.0,63.4 430.3,67.5 428.0,71.3 425.3,74.9 422.1,78.1 418.5,80.9 414.5,83.2 410.3,85.1 405.8,86.3 401.1,87.1 396.4,87.2 391.7,86.7 387.0,85.6 382.5,83.9 378.2,81.6 374.1,78.8 370.5,75.4 367.3,71.6 364.6,67.4 362.4,62.9 360.8,58.0 359.9,53.0 359.5,47.9 359.9,42.7 360.8,37.6 362.5,32.7 364.8,27.9 367.6,23.4 371.1,19.4 375.1,15.7 379.5,12.6 384.3,10.1 389.4,8.1 394.8,6.9 400.3,6.3" fill="none" stroke="rgba(255,255,255,0.40)" stroke-width="1.2"/><path d="M 397.6,33.1 399.7,32.6 402.0,32.5 404.2,32.6 406.5,33.0 408.7,33.8 410.9,34.8 412.9,36.1 414.8,37.7 416.4,39.5 417.9,41.6 419.0,43.8 419.9,46.2 420.5,48.8 420.8,51.4 420.7,54.1 420.3,56.7 419.5,59.4 418.4,61.9 416.9,64.3 415.1,66.5 413.1,68.6 410.7,70.3 408.2,71.7 405.4,72.9 402.5,73.6 399.5,74.0 396.4,74.0 393.3,73.6 390.3,72.8 387.3,71.6 384.5,70.1 381.9,68.1 379.5,65.8 377.5,63.3 375.7,60.4 374.3,57.3 373.4,54.0 372.8,50.6 372.7,47.1 373.0,43.6 373.8,40.2 375.0,36.8 376.6,33.6 378.7,30.6 381.2,27.8 384.0,25.4 387.1,23.3 390.5,21.7 394.2,20.4 397.9,19.7 401.8,19.4 405.7,19.6 409.6,20.3 413.4,21.5 417.1,23.2 420.5,25.4 423.6,28.0 426.5,31.1 428.9,34.4 430.9,38.1 432.4,42.1 433.4,46.2 433.9,50.5 433.8,54.8 433.2,59.1 432.0,63.4 430.3,67.5 428.0,71.3 425.3,74.9 422.1,78.1 418.5,80.9 414.5,83.2 410.3,85.1 405.8,86.3 401.1,87.1 396.4,87.2 391.7,86.7 387.0,85.6 382.5,83.9 378.2,81.6 374.1,78.8 370.5,75.4 367.3,71.6 364.6,67.4 362.4,62.9 360.8,58.0 359.9,53.0 359.5,47.9 359.9,42.7 360.8,37.6 362.5,32.7 364.8,27.9 367.6,23.4 371.1,19.4 375.1,15.7 379.5,12.6 384.3,10.1 389.4,8.1 394.8,6.9 400.3,6.3" fill="none" stroke="rgba(220,235,255,0.20)" stroke-width="0.6"/><path d="M 400.0,50.0 C 450.4,7.8 343.4,101.6 400.0,150.0" fill="none" stroke="rgba(255,255,255,0.15)" stroke-width="1.5" filter="url(#g)"/><path d="M 400.0,50.0 C 450.4,7.8 343.4,101.6 400.0,150.0" fill="none" stroke="rgba(255,255,255,0.40)" stroke-width="0.6"/><path d="M 400.0,50.0 C 416.4,91.6 104.9,28.3 80.0,80.0" fill="none" stroke="rgba(255,255,255,0.15)" stroke-width="1.5" filter="url(#g)"/><path d="M 400.0,50.0 C 416.4,91.6 104.9,28.3 80.0,80.0" fill="none" stroke="rgba(255,255,255,0.40)" stroke-width="0.6"/><path d="M 720.5,62.1 722.7,62.0 725.0,62.2 727.2,62.6 729.5,63.4 731.6,64.5 733.6,65.8 735.5,67.4 737.1,69.2 738.6,71.2 739.8,73.5 740.7,75.9 741.3,78.4 741.7,81.1 741.6,83.8 741.3,86.5 740.6,89.1 739.6,91.7 738.2,94.2 736.6,96.5 734.6,98.7 732.3,100.6 729.9,102.2 727.2,103.5 724.3,104.5 721.3,105.1 718.2,105.3 715.0,105.2 711.9,104.7 708.8,103.8 705.9,102.5 703.0,100.8 700.4,98.8 698.0,96.4 695.9,93.7 694.2,90.8 692.8,87.7 691.8,84.3 691.2,80.8 691.0,77.3 691.3,73.7 692.0,70.1 693.1,66.7 694.7,63.3 696.7,60.2 699.1,57.3 701.9,54.6 705.0,52.4 708.4,50.5 712.0,49.0 715.8,48.0 719.8,47.4 723.8,47.4 727.8,47.8 731.8,48.7 735.7,50.1 739.4,52.0 742.8,54.4 746.0,57.2 748.8,60.4 751.3,63.9 753.3,67.8 754.8,71.8 755.8,76.1 756.3,80.5 756.2,85.0 755.6,89.5 754.5,93.9 752.8,98.1 750.6,102.2 747.8,105.9 744.6,109.3 741.0,112.4 737.0,115.0 732.7,117.0 728.2,118.6 723.4,119.6 718.5,120.0 713.6,119.8 708.7,119.0 703.9,117.6 699.3,115.6 694.9,113.0 690.9,109.9 687.2,106.3 684.0,102.3 681.3,97.8 679.1,93.0 677.6,88.0 676.6,82.8 676.3,77.4 676.7,72.1 677.7,66.8 679.4,61.6 681.7,56.6 684.6,51.9 688.1,47.6 692.1,43.7 696.6,40.3 701.5,37.5 706.8,35.3" fill="none" stroke="rgba(255,255,255,0.06)" stroke-width="10" filter="url(#sg)"/><path d="M 720.5,62.1 722.7,62.0 725.0,62.2 727.2,62.6 729.5,63.4 731.6,64.5 733.6,65.8 735.5,67.4 737.1,69.2 738.6,71.2 739.8,73.5 740.7,75.9 741.3,78.4 741.7,81.1 741.6,83.8 741.3,86.5 740.6,89.1 739.6,91.7 738.2,94.2 736.6,96.5 734.6,98.7 732.3,100.6 729.9,102.2 727.2,103.5 724.3,104.5 721.3,105.1 718.2,105.3 715.0,105.2 711.9,104.7 708.8,103.8 705.9,102.5 703.0,100.8 700.4,98.8 698.0,96.4 695.9,93.7 694.2,90.8 692.8,87.7 691.8,84.3 691.2,80.8 691.0,77.3 691.3,73.7 692.0,70.1 693.1,66.7 694.7,63.3 696.7,60.2 699.1,57.3 701.9,54.6 705.0,52.4 708.4,50.5 712.0,49.0 715.8,48.0 719.8,47.4 723.8,47.4 727.8,47.8 731.8,48.7 735.7,50.1 739.4,52.0 742.8,54.4 746.0,57.2 748.8,60.4 751.3,63.9 753.3,67.8 754.8,71.8 755.8,76.1 756.3,80.5 756.2,85.0 755.6,89.5 754.5,93.9 752.8,98.1 750.6,102.2 747.8,105.9 744.6,109.3 741.0,112.4 737.0,115.0 732.7,117.0 728.2,118.6 723.4,119.6 718.5,120.0 713.6,119.8 708.7,119.0 703.9,117.6 699.3,115.6 694.9,113.0 690.9,109.9 687.2,106.3 684.0,102.3 681.3,97.8 679.1,93.0 677.6,88.0 676.6,82.8 676.3,77.4 676.7,72.1 677.7,66.8 679.4,61.6 681.7,56.6 684.6,51.9 688.1,47.6 692.1,43.7 696.6,40.3 701.5,37.5 706.8,35.3" fill="none" stroke="rgba(255,255,255,0.15)" stroke-width="3" filter="url(#g)"/><path d="M 720.5,62.1 722.7,62.0 725.0,62.2 727.2,62.6 729.5,63.4 731.6,64.5 733.6,65.8 735.5,67.4 737.1,69.2 738.6,71.2 739.8,73.5 740.7,75.9 741.3,78.4 741.7,81.1 741.6,83.8 741.3,86.5 740.6,89.1 739.6,91.7 738.2,94.2 736.6,96.5 734.6,98.7 732.3,100.6 729.9,102.2 727.2,103.5 724.3,104.5 721.3,105.1 718.2,105.3 715.0,105.2 711.9,104.7 708.8,103.8 705.9,102.5 703.0,100.8 700.4,98.8 698.0,96.4 695.9,93.7 694.2,90.8 692.8,87.7 691.8,84.3 691.2,80.8 691.0,77.3 691.3,73.7 692.0,70.1 693.1,66.7 694.7,63.3 696.7,60.2 699.1,57.3 701.9,54.6 705.0,52.4 708.4,50.5 712.0,49.0 715.8,48.0 719.8,47.4 723.8,47.4 727.8,47.8 731.8,48.7 735.7,50.1 739.4,52.0 742.8,54.4 746.0,57.2 748.8,60.4 751.3,63.9 753.3,67.8 754.8,71.8 755.8,76.1 756.3,80.5 756.2,85.0 755.6,89.5 754.5,93.9 752.8,98.1 750.6,102.2 747.8,105.9 744.6,109.3 741.0,112.4 737.0,115.0 732.7,117.0 728.2,118.6 723.4,119.6 718.5,120.0 713.6,119.8 708.7,119.0 703.9,117.6 699.3,115.6 694.9,113.0 690.9,109.9 687.2,106.3 684.0,102.3 681.3,97.8 679.1,93.0 677.6,88.0 676.6,82.8 676.3,77.4 676.7,72.1 677.7,66.8 679.4,61.6 681.7,56.6 684.6,51.9 688.1,47.6 692.1,43.7 696.6,40.3 701.5,37.5 706.8,35.3" fill="none" stroke="rgba(255,255,255,0.40)" stroke-width="1.2"/><path d="M 720.5,62.1 722.7,62.0 725.0,62.2 727.2,62.6 729.5,63.4 731.6,64.5 733.6,65.8 735.5,67.4 737.1,69.2 738.6,71.2 739.8,73.5 740.7,75.9 741.3,78.4 741.7,81.1 741.6,83.8 741.3,86.5 740.6,89.1 739.6,91.7 738.2,94.2 736.6,96.5 734.6,98.7 732.3,100.6 729.9,102.2 727.2,103.5 724.3,104.5 721.3,105.1 718.2,105.3 715.0,105.2 711.9,104.7 708.8,103.8 705.9,102.5 703.0,100.8 700.4,98.8 698.0,96.4 695.9,93.7 694.2,90.8 692.8,87.7 691.8,84.3 691.2,80.8 691.0,77.3 691.3,73.7 692.0,70.1 693.1,66.7 694.7,63.3 696.7,60.2 699.1,57.3 701.9,54.6 705.0,52.4 708.4,50.5 712.0,49.0 715.8,48.0 719.8,47.4 723.8,47.4 727.8,47.8 731.8,48.7 735.7,50.1 739.4,52.0 742.8,54.4 746.0,57.2 748.8,60.4 751.3,63.9 753.3,67.8 754.8,71.8 755.8,76.1 756.3,80.5 756.2,85.0 755.6,89.5 754.5,93.9 752.8,98.1 750.6,102.2 747.8,105.9 744.6,109.3 741.0,112.4 737.0,115.0 732.7,117.0 728.2,118.6 723.4,119.6 718.5,120.0 713.6,119.8 708.7,119.0 703.9,117.6 699.3,115.6 694.9,113.0 690.9,109.9 687.2,106.3 684.0,102.3 681.3,97.8 679.1,93.0 677.6,88.0 676.6,82.8 676.3,77.4 676.7,72.1 677.7,66.8 679.4,61.6 681.7,56.6 684.6,51.9 688.1,47.6 692.1,43.7 696.6,40.3 701.5,37.5 706.8,35.3" fill="none" stroke="rgba(220,235,255,0.20)" stroke-width="0.6"/><path d="M 720.0,80.0 C 711.8,147.9 410.3,71.6 400.0,50.0" fill="none" stroke="rgba(255,255,255,0.15)" stroke-width="1.5" filter="url(#g)"/><path d="M 720.0,80.0 C 711.8,147.9 410.3,71.6 400.0,50.0" fill="none" stroke="rgba(255,255,255,0.40)" stroke-width="0.6"/><path d="M 720.0,80.0 C 739.9,138.3 770.4,344.2 750.0,400.0" fill="none" stroke="rgba(255,255,255,0.15)" stroke-width="1.5" filter="url(#g)"/><path d="M 720.0,80.0 C 739.9,138.3 770.4,344.2 750.0,400.0" fill="none" stroke="rgba(255,255,255,0.40)" stroke-width="0.6"/><path d="M 47.5,407.2 46.8,407.1 46.2,407.0 45.5,406.8 44.8,406.6 44.1,406.3 43.5,405.9 42.9,405.4 42.3,404.9 41.7,404.3 41.2,403.7 40.7,403.0 40.3,402.2 40.0,401.4 39.7,400.6 39.5,399.7 39.4,398.8 39.4,397.9 39.4,396.9 39.5,396.0 39.7,395.0 40.0,394.1 40.4,393.2 40.8,392.2 41.4,391.4 42.0,390.5 42.7,389.7 43.5,389.0 44.4,388.3 45.3,387.7 46.3,387.2 47.4,386.7 48.5,386.4 49.7,386.1 50.8,385.9 52.1,385.9 53.3,385.9 54.5,386.1 55.8,386.3 57.0,386.7 58.2,387.2 59.3,387.7 60.5,388.4 61.5,389.2 62.6,390.1 63.5,391.1 64.4,392.2 65.2,393.3 65.8,394.6 66.4,395.9 66.9,397.3 67.3,398.7 67.5,400.1 67.6,401.6 67.6,403.2 67.5,404.7 67.2,406.2 66.8,407.7 66.2,409.2 65.6,410.6 64.8,412.0 63.8,413.4 62.8,414.6 61.6,415.8 60.3,416.9 59.0,417.9 57.5,418.7 55.9,419.5 54.3,420.1 52.6,420.6 50.9,420.9 49.1,421.1 47.3,421.1 45.5,421.0 43.7,420.8 41.9,420.3 40.1,419.7 38.4,419.0 36.7,418.1 35.1,417.1 33.6,415.9 32.2,414.6 30.9,413.1 29.7,411.6 28.6,409.9 27.6,408.1 26.9,406.2 26.2,404.3 25.8,402.3 25.5,400.2 25.3,398.2 25.4,396.1 25.6,394.0 26.0,391.9 26.6,389.8 27.4,387.8 28.4,385.8 29.5,383.9 30.8,382.1 32.2,380.4 33.8,378.8" fill="none" stroke="rgba(255,255,255,0.06)" stroke-width="10" filter="url(#sg)"/><path d="M 47.5,407.2 46.8,407.1 46.2,407.0 45.5,406.8 44.8,406.6 44.1,406.3 43.5,405.9 42.9,405.4 42.3,404.9 41.7,404.3 41.2,403.7 40.7,403.0 40.3,402.2 40.0,401.4 39.7,400.6 39.5,399.7 39.4,398.8 39.4,397.9 39.4,396.9 39.5,396.0 39.7,395.0 40.0,394.1 40.4,393.2 40.8,392.2 41.4,391.4 42.0,390.5 42.7,389.7 43.5,389.0 44.4,388.3 45.3,387.7 46.3,387.2 47.4,386.7 48.5,386.4 49.7,386.1 50.8,385.9 52.1,385.9 53.3,385.9 54.5,386.1 55.8,386.3 57.0,386.7 58.2,387.2 59.3,387.7 60.5,388.4 61.5,389.2 62.6,390.1 63.5,391.1 64.4,392.2 65.2,393.3 65.8,394.6 66.4,395.9 66.9,397.3 67.3,398.7 67.5,400.1 67.6,401.6 67.6,403.2 67.5,404.7 67.2,406.2 66.8,407.7 66.2,409.2 65.6,410.6 64.8,412.0 63.8,413.4 62.8,414.6 61.6,415.8 60.3,416.9 59.0,417.9 57.5,418.7 55.9,419.5 54.3,420.1 52.6,420.6 50.9,420.9 49.1,421.1 47.3,421.1 45.5,421.0 43.7,420.8 41.9,420.3 40.1,419.7 38.4,419.0 36.7,418.1 35.1,417.1 33.6,415.9 32.2,414.6 30.9,413.1 29.7,411.6 28.6,409.9 27.6,408.1 26.9,406.2 26.2,404.3 25.8,402.3 25.5,400.2 25.3,398.2 25.4,396.1 25.6,394.0 26.0,391.9 26.6,389.8 27.4,387.8 28.4,385.8 29.5,383.9 30.8,382.1 32.2,380.4 33.8,378.8" fill="none" stroke="rgba(255,255,255,0.15)" stroke-width="3" filter="url(#g)"/><path d="M 47.5,407.2 46.8,407.1 46.2,407.0 45.5,406.8 44.8,406.6 44.1,406.3 43.5,405.9 42.9,405.4 42.3,404.9 41.7,404.3 41.2,403.7 40.7,403.0 40.3,402.2 40.0,401.4 39.7,400.6 39.5,399.7 39.4,398.8 39.4,397.9 39.4,396.9 39.5,396.0 39.7,395.0 40.0,394.1 40.4,393.2 40.8,392.2 41.4,391.4 42.0,390.5 42.7,389.7 43.5,389.0 44.4,388.3 45.3,387.7 46.3,387.2 47.4,386.7 48.5,386.4 49.7,386.1 50.8,385.9 52.1,385.9 53.3,385.9 54.5,386.1 55.8,386.3 57.0,386.7 58.2,387.2 59.3,387.7 60.5,388.4 61.5,389.2 62.6,390.1 63.5,391.1 64.4,392.2 65.2,393.3 65.8,394.6 66.4,395.9 66.9,397.3 67.3,398.7 67.5,400.1 67.6,401.6 67.6,403.2 67.5,404.7 67.2,406.2 66.8,407.7 66.2,409.2 65.6,410.6 64.8,412.0 63.8,413.4 62.8,414.6 61.6,415.8 60.3,416.9 59.0,417.9 57.5,418.7 55.9,419.5 54.3,420.1 52.6,420.6 50.9,420.9 49.1,421.1 47.3,421.1 45.5,421.0 43.7,420.8 41.9,420.3 40.1,419.7 38.4,419.0 36.7,418.1 35.1,417.1 33.6,415.9 32.2,414.6 30.9,413.1 29.7,411.6 28.6,409.9 27.6,408.1 26.9,406.2 26.2,404.3 25.8,402.3 25.5,400.2 25.3,398.2 25.4,396.1 25.6,394.0 26.0,391.9 26.6,389.8 27.4,387.8 28.4,385.8 29.5,383.9 30.8,382.1 32.2,380.4 33.8,378.8" fill="none" stroke="rgba(255,255,255,0.40)" stroke-width="1.2"/><path d="M 47.5,407.2 46.8,407.1 46.2,407.0 45.5,406.8 44.8,406.6 44.1,406.3 43.5,405.9 42.9,405.4 42.3,404.9 41.7,404.3 41.2,403.7 40.7,403.0 40.3,402.2 40.0,401.4 39.7,400.6 39.5,399.7 39.4,398.8 39.4,397.9 39.4,396.9 39.5,396.0 39.7,395.0 40.0,394.1 40.4,393.2 40.8,392.2 41.4,391.4 42.0,390.5 42.7,389.7 43.5,389.0 44.4,388.3 45.3,387.7 46.3,387.2 47.4,386.7 48.5,386.4 49.7,386.1 50.8,385.9 52.1,385.9 53.3,385.9 54.5,386.1 55.8,386.3 57.0,386.7 58.2,387.2 59.3,387.7 60.5,388.4 61.5,389.2 62.6,390.1 63.5,391.1 64.4,392.2 65.2,393.3 65.8,394.6 66.4,395.9 66.9,397.3 67.3,398.7 67.5,400.1 67.6,401.6 67.6,403.2 67.5,404.7 67.2,406.2 66.8,407.7 66.2,409.2 65.6,410.6 64.8,412.0 63.8,413.4 62.8,414.6 61.6,415.8 60.3,416.9 59.0,417.9 57.5,418.7 55.9,419.5 54.3,420.1 52.6,420.6 50.9,420.9 49.1,421.1 47.3,421.1 45.5,421.0 43.7,420.8 41.9,420.3 40.1,419.7 38.4,419.0 36.7,418.1 35.1,417.1 33.6,415.9 32.2,414.6 30.9,413.1 29.7,411.6 28.6,409.9 27.6,408.1 26.9,406.2 26.2,404.3 25.8,402.3 25.5,400.2 25.3,398.2 25.4,396.1 25.6,394.0 26.0,391.9 26.6,389.8 27.4,387.8 28.4,385.8 29.5,383.9 30.8,382.1 32.2,380.4 33.8,378.8" fill="none" stroke="rgba(220,235,255,0.20)" stroke-width="0.6"/><path d="M 50.0,400.0 C -21.0,401.2 119.7,392.3 150.0,400.0" fill="none" stroke="rgba(255,255,255,0.15)" stroke-width="1.5" filter="url(#g)"/><path d="M 50.0,400.0 C -21.0,401.2 119.7,392.3 150.0,400.0" fill="none" stroke="rgba(255,255,255,0.40)" stroke-width="0.6"/><path d="M 50.0,400.0 C -20.9,453.1 12.3,138.3 80.0,80.0" fill="none" stroke="rgba(255,255,255,0.15)" stroke-width="1.5" filter="url(#g)"/><path d="M 50.0,400.0 C -20.9,453.1 12.3,138.3 80.0,80.0" fill="none" stroke="rgba(255,255,255,0.40)" stroke-width="0.6"/><path d="M 384.6,399.3 384.5,397.8 384.6,396.2 384.8,394.6 385.2,393.0 385.7,391.4 386.4,389.9 387.3,388.5 388.4,387.1 389.5,385.8 390.9,384.6 392.3,383.5 393.9,382.6 395.6,381.9 397.4,381.3 399.3,380.8 401.2,380.6 403.1,380.6 405.1,380.7 407.1,381.1 409.0,381.7 410.9,382.4 412.8,383.4 414.5,384.6 416.2,385.9 417.7,387.4 419.1,389.1 420.3,391.0 421.3,392.9 422.2,395.0 422.8,397.2 423.2,399.5 423.4,401.8 423.4,404.1 423.1,406.5 422.5,408.8 421.8,411.2 420.8,413.4 419.6,415.5 418.1,417.6 416.4,419.5 414.6,421.2 412.5,422.8 410.3,424.1 407.9,425.3 405.4,426.2 402.9,426.8 400.2,427.3 397.5,427.4 394.7,427.2 392.0,426.8 389.3,426.1 386.6,425.2 384.0,423.9 381.6,422.4 379.3,420.7 377.1,418.7 375.2,416.5 373.5,414.0 372.0,411.4 370.7,408.7 369.8,405.8 369.1,402.8 368.7,399.7 368.6,396.6 368.9,393.5 369.4,390.3 370.3,387.2 371.5,384.3 373.0,381.4 374.8,378.6 376.9,376.0 379.2,373.7 381.8,371.5 384.5,369.6 387.5,368.0 390.7,366.7 394.0,365.7 397.4,365.0 400.9,364.7 404.4,364.7 407.9,365.1 411.4,365.8 414.9,366.8 418.2,368.3 421.4,370.0 424.4,372.1 427.3,374.5 429.9,377.2 432.2,380.1 434.2,383.3 436.0,386.6 437.3,390.2 438.4,393.9 439.1,397.7 439.3,401.6 439.2,405.5 438.7,409.5 437.8,413.3 436.6,417.1 434.9,420.8" fill="none" stroke="rgba(255,255,255,0.06)" stroke-width="10" filter="url(#sg)"/><path d="M 384.6,399.3 384.5,397.8 384.6,396.2 384.8,394.6 385.2,393.0 385.7,391.4 386.4,389.9 387.3,388.5 388.4,387.1 389.5,385.8 390.9,384.6 392.3,383.5 393.9,382.6 395.6,381.9 397.4,381.3 399.3,380.8 401.2,380.6 403.1,380.6 405.1,380.7 407.1,381.1 409.0,381.7 410.9,382.4 412.8,383.4 414.5,384.6 416.2,385.9 417.7,387.4 419.1,389.1 420.3,391.0 421.3,392.9 422.2,395.0 422.8,397.2 423.2,399.5 423.4,401.8 423.4,404.1 423.1,406.5 422.5,408.8 421.8,411.2 420.8,413.4 419.6,415.5 418.1,417.6 416.4,419.5 414.6,421.2 412.5,422.8 410.3,424.1 407.9,425.3 405.4,426.2 402.9,426.8 400.2,427.3 397.5,427.4 394.7,427.2 392.0,426.8 389.3,426.1 386.6,425.2 384.0,423.9 381.6,422.4 379.3,420.7 377.1,418.7 375.2,416.5 373.5,414.0 372.0,411.4 370.7,408.7 369.8,405.8 369.1,402.8 368.7,399.7 368.6,396.6 368.9,393.5 369.4,390.3 370.3,387.2 371.5,384.3 373.0,381.4 374.8,378.6 376.9,376.0 379.2,373.7 381.8,371.5 384.5,369.6 387.5,368.0 390.7,366.7 394.0,365.7 397.4,365.0 400.9,364.7 404.4,364.7 407.9,365.1 411.4,365.8 414.9,366.8 418.2,368.3 421.4,370.0 424.4,372.1 427.3,374.5 429.9,377.2 432.2,380.1 434.2,383.3 436.0,386.6 437.3,390.2 438.4,393.9 439.1,397.7 439.3,401.6 439.2,405.5 438.7,409.5 437.8,413.3 436.6,417.1 434.9,420.8" fill="none" stroke="rgba(255,255,255,0.15)" stroke-width="3" filter="url(#g)"/><path d="M 384.6,399.3 384.5,397.8 384.6,396.2 384.8,394.6 385.2,393.0 385.7,391.4 386.4,389.9 387.3,388.5 388.4,387.1 389.5,385.8 390.9,384.6 392.3,383.5 393.9,382.6 395.6,381.9 397.4,381.3 399.3,380.8 401.2,380.6 403.1,380.6 405.1,380.7 407.1,381.1 409.0,381.7 410.9,382.4 412.8,383.4 414.5,384.6 416.2,385.9 417.7,387.4 419.1,389.1 420.3,391.0 421.3,392.9 422.2,395.0 422.8,397.2 423.2,399.5 423.4,401.8 423.4,404.1 423.1,406.5 422.5,408.8 421.8,411.2 420.8,413.4 419.6,415.5 418.1,417.6 416.4,419.5 414.6,421.2 412.5,422.8 410.3,424.1 407.9,425.3 405.4,426.2 402.9,426.8 400.2,427.3 397.5,427.4 394.7,427.2 392.0,426.8 389.3,426.1 386.6,425.2 384.0,423.9 381.6,422.4 379.3,420.7 377.1,418.7 375.2,416.5 373.5,414.0 372.0,411.4 370.7,408.7 369.8,405.8 369.1,402.8 368.7,399.7 368.6,396.6 368.9,393.5 369.4,390.3 370.3,387.2 371.5,384.3 373.0,381.4 374.8,378.6 376.9,376.0 379.2,373.7 381.8,371.5 384.5,369.6 387.5,368.0 390.7,366.7 394.0,365.7 397.4,365.0 400.9,364.7 404.4,364.7 407.9,365.1 411.4,365.8 414.9,366.8 418.2,368.3 421.4,370.0 424.4,372.1 427.3,374.5 429.9,377.2 432.2,380.1 434.2,383.3 436.0,386.6 437.3,390.2 438.4,393.9 439.1,397.7 439.3,401.6 439.2,405.5 438.7,409.5 437.8,413.3 436.6,417.1 434.9,420.8" fill="none" stroke="rgba(255,255,255,0.40)" stroke-width="1.2"/><path d="M 384.6,399.3 384.5,397.8 384.6,396.2 384.8,394.6 385.2,393.0 385.7,391.4 386.4,389.9 387.3,388.5 388.4,387.1 389.5,385.8 390.9,384.6 392.3,383.5 393.9,382.6 395.6,381.9 397.4,381.3 399.3,380.8 401.2,380.6 403.1,380.6 405.1,380.7 407.1,381.1 409.0,381.7 410.9,382.4 412.8,383.4 414.5,384.6 416.2,385.9 417.7,387.4 419.1,389.1 420.3,391.0 421.3,392.9 422.2,395.0 422.8,397.2 423.2,399.5 423.4,401.8 423.4,404.1 423.1,406.5 422.5,408.8 421.8,411.2 420.8,413.4 419.6,415.5 418.1,417.6 416.4,419.5 414.6,421.2 412.5,422.8 410.3,424.1 407.9,425.3 405.4,426.2 402.9,426.8 400.2,427.3 397.5,427.4 394.7,427.2 392.0,426.8 389.3,426.1 386.6,425.2 384.0,423.9 381.6,422.4 379.3,420.7 377.1,418.7 375.2,416.5 373.5,414.0 372.0,411.4 370.7,408.7 369.8,405.8 369.1,402.8 368.7,399.7 368.6,396.6 368.9,393.5 369.4,390.3 370.3,387.2 371.5,384.3 373.0,381.4 374.8,378.6 376.9,376.0 379.2,373.7 381.8,371.5 384.5,369.6 387.5,368.0 390.7,366.7 394.0,365.7 397.4,365.0 400.9,364.7 404.4,364.7 407.9,365.1 411.4,365.8 414.9,366.8 418.2,368.3 421.4,370.0 424.4,372.1 427.3,374.5 429.9,377.2 432.2,380.1 434.2,383.3 436.0,386.6 437.3,390.2 438.4,393.9 439.1,397.7 439.3,401.6 439.2,405.5 438.7,409.5 437.8,413.3 436.6,417.1 434.9,420.8" fill="none" stroke="rgba(220,235,255,0.20)" stroke-width="0.6"/><path d="M 400.0,400.0 C 408.7,446.7 213.3,392.0 150.0,400.0" fill="none" stroke="rgba(255,255,255,0.15)" stroke-width="1.5" filter="url(#g)"/><path d="M 400.0,400.0 C 408.7,446.7 213.3,392.0 150.0,400.0" fill="none" stroke="rgba(255,255,255,0.40)" stroke-width="0.6"/><path d="M 400.0,400.0 C 449.6,424.3 371.4,146.1 400.0,150.0" fill="none" stroke="rgba(255,255,255,0.15)" stroke-width="1.5" filter="url(#g)"/><path d="M 400.0,400.0 C 449.6,424.3 371.4,146.1 400.0,150.0" fill="none" stroke="rgba(255,255,255,0.40)" stroke-width="0.6"/><path d="M 753.8,402.9 753.6,403.5 753.2,404.1 752.7,404.7 752.1,405.2 751.5,405.7 750.7,406.0 749.9,406.3 749.0,406.4 748.1,406.5 747.2,406.4 746.3,406.1 745.4,405.7 744.5,405.2 743.7,404.5 742.9,403.8 742.3,402.9 741.8,401.9 741.4,400.8 741.1,399.6 741.1,398.4 741.1,397.2 741.4,395.9 741.9,394.7 742.5,393.5 743.3,392.4 744.2,391.4 745.3,390.5 746.5,389.8 747.9,389.2 749.3,388.8 750.9,388.6 752.4,388.6 754.0,388.8 755.5,389.3 757.0,389.9 758.5,390.8 759.8,391.8 760.9,393.1 762.0,394.5 762.8,396.1 763.4,397.8 763.8,399.6 763.9,401.5 763.8,403.4 763.4,405.3 762.8,407.1 761.9,408.9 760.8,410.5 759.4,412.0 757.9,413.4 756.1,414.5 754.2,415.4 752.1,416.0 750.0,416.4 747.8,416.4 745.5,416.2 743.3,415.6 741.2,414.8 739.2,413.7 737.3,412.3 735.6,410.6 734.1,408.7 732.9,406.6 732.0,404.3 731.4,401.9 731.1,399.4 731.1,396.8 731.5,394.3 732.2,391.8 733.3,389.4 734.7,387.1 736.4,385.0 738.4,383.2 740.6,381.6 743.1,380.3 745.7,379.4 748.5,378.8 751.4,378.5 754.3,378.7 757.1,379.3 759.9,380.2 762.6,381.5 765.1,383.2 767.3,385.2 769.3,387.5 771.0,390.1 772.3,392.9 773.3,395.9 773.8,399.1 774.0,402.3 773.7,405.5 772.9,408.7 771.8,411.7 770.2,414.7 768.2,417.4 765.9,419.8 763.2,421.9 760.3,423.7 757.1,425.0 753.7,426.0" fill="none" stroke="rgba(255,255,255,0.06)" stroke-width="10" filter="url(#sg)"/><path d="M 753.8,402.9 753.6,403.5 753.2,404.1 752.7,404.7 752.1,405.2 751.5,405.7 750.7,406.0 749.9,406.3 749.0,406.4 748.1,406.5 747.2,406.4 746.3,406.1 745.4,405.7 744.5,405.2 743.7,404.5 742.9,403.8 742.3,402.9 741.8,401.9 741.4,400.8 741.1,399.6 741.1,398.4 741.1,397.2 741.4,395.9 741.9,394.7 742.5,393.5 743.3,392.4 744.2,391.4 745.3,390.5 746.5,389.8 747.9,389.2 749.3,388.8 750.9,388.6 752.4,388.6 754.0,388.8 755.5,389.3 757.0,389.9 758.5,390.8 759.8,391.8 760.9,393.1 762.0,394.5 762.8,396.1 763.4,397.8 763.8,399.6 763.9,401.5 763.8,403.4 763.4,405.3 762.8,407.1 761.9,408.9 760.8,410.5 759.4,412.0 757.9,413.4 756.1,414.5 754.2,415.4 752.1,416.0 750.0,416.4 747.8,416.4 745.5,416.2 743.3,415.6 741.2,414.8 739.2,413.7 737.3,412.3 735.6,410.6 734.1,408.7 732.9,406.6 732.0,404.3 731.4,401.9 731.1,399.4 731.1,396.8 731.5,394.3 732.2,391.8 733.3,389.4 734.7,387.1 736.4,385.0 738.4,383.2 740.6,381.6 743.1,380.3 745.7,379.4 748.5,378.8 751.4,378.5 754.3,378.7 757.1,379.3 759.9,380.2 762.6,381.5 765.1,383.2 767.3,385.2 769.3,387.5 771.0,390.1 772.3,392.9 773.3,395.9 773.8,399.1 774.0,402.3 773.7,405.5 772.9,408.7 771.8,411.7 770.2,414.7 768.2,417.4 765.9,419.8 763.2,421.9 760.3,423.7 757.1,425.0 753.7,426.0" fill="none" stroke="rgba(255,255,255,0.15)" stroke-width="3" filter="url(#g)"/><path d="M 753.8,402.9 753.6,403.5 753.2,404.1 752.7,404.7 752.1,405.2 751.5,405.7 750.7,406.0 749.9,406.3 749.0,406.4 748.1,406.5 747.2,406.4 746.3,406.1 745.4,405.7 744.5,405.2 743.7,404.5 742.9,403.8 742.3,402.9 741.8,401.9 741.4,400.8 741.1,399.6 741.1,398.4 741.1,397.2 741.4,395.9 741.9,394.7 742.5,393.5 743.3,392.4 744.2,391.4 745.3,390.5 746.5,389.8 747.9,389.2 749.3,388.8 750.9,388.6 752.4,388.6 754.0,388.8 755.5,389.3 757.0,389.9 758.5,390.8 759.8,391.8 760.9,393.1 762.0,394.5 762.8,396.1 763.4,397.8 763.8,399.6 763.9,401.5 763.8,403.4 763.4,405.3 762.8,407.1 761.9,408.9 760.8,410.5 759.4,412.0 757.9,413.4 756.1,414.5 754.2,415.4 752.1,416.0 750.0,416.4 747.8,416.4 745.5,416.2 743.3,415.6 741.2,414.8 739.2,413.7 737.3,412.3 735.6,410.6 734.1,408.7 732.9,406.6 732.0,404.3 731.4,401.9 731.1,399.4 731.1,396.8 731.5,394.3 732.2,391.8 733.3,389.4 734.7,387.1 736.4,385.0 738.4,383.2 740.6,381.6 743.1,380.3 745.7,379.4 748.5,378.8 751.4,378.5 754.3,378.7 757.1,379.3 759.9,380.2 762.6,381.5 765.1,383.2 767.3,385.2 769.3,387.5 771.0,390.1 772.3,392.9 773.3,395.9 773.8,399.1 774.0,402.3 773.7,405.5 772.9,408.7 771.8,411.7 770.2,414.7 768.2,417.4 765.9,419.8 763.2,421.9 760.3,423.7 757.1,425.0 753.7,426.0" fill="none" stroke="rgba(255,255,255,0.40)" stroke-width="1.2"/><path d="M 753.8,402.9 753.6,403.5 753.2,404.1 752.7,404.7 752.1,405.2 751.5,405.7 750.7,406.0 749.9,406.3 749.0,406.4 748.1,406.5 747.2,406.4 746.3,406.1 745.4,405.7 744.5,405.2 743.7,404.5 742.9,403.8 742.3,402.9 741.8,401.9 741.4,400.8 741.1,399.6 741.1,398.4 741.1,397.2 741.4,395.9 741.9,394.7 742.5,393.5 743.3,392.4 744.2,391.4 745.3,390.5 746.5,389.8 747.9,389.2 749.3,388.8 750.9,388.6 752.4,388.6 754.0,388.8 755.5,389.3 757.0,389.9 758.5,390.8 759.8,391.8 760.9,393.1 762.0,394.5 762.8,396.1 763.4,397.8 763.8,399.6 763.9,401.5 763.8,403.4 763.4,405.3 762.8,407.1 761.9,408.9 760.8,410.5 759.4,412.0 757.9,413.4 756.1,414.5 754.2,415.4 752.1,416.0 750.0,416.4 747.8,416.4 745.5,416.2 743.3,415.6 741.2,414.8 739.2,413.7 737.3,412.3 735.6,410.6 734.1,408.7 732.9,406.6 732.0,404.3 731.4,401.9 731.1,399.4 731.1,396.8 731.5,394.3 732.2,391.8 733.3,389.4 734.7,387.1 736.4,385.0 738.4,383.2 740.6,381.6 743.1,380.3 745.7,379.4 748.5,378.8 751.4,378.5 754.3,378.7 757.1,379.3 759.9,380.2 762.6,381.5 765.1,383.2 767.3,385.2 769.3,387.5 771.0,390.1 772.3,392.9 773.3,395.9 773.8,399.1 774.0,402.3 773.7,405.5 772.9,408.7 771.8,411.7 770.2,414.7 768.2,417.4 765.9,419.8 763.2,421.9 760.3,423.7 757.1,425.0 753.7,426.0" fill="none" stroke="rgba(220,235,255,0.20)" stroke-width="0.6"/><path d="M 750.0,400.0 C 725.0,434.3 650.7,347.6 650.0,400.0" fill="none" stroke="rgba(255,255,255,0.15)" stroke-width="1.5" filter="url(#g)"/><path d="M 750.0,400.0 C 725.0,434.3 650.7,347.6 650.0,400.0" fill="none" stroke="rgba(255,255,255,0.40)" stroke-width="0.6"/><path d="M 750.0,400.0 C 709.6,390.0 710.3,83.6 720.0,80.0" fill="none" stroke="rgba(255,255,255,0.15)" stroke-width="1.5" filter="url(#g)"/><path d="M 750.0,400.0 C 709.6,390.0 710.3,83.6 720.0,80.0" fill="none" stroke="rgba(255,255,255,0.40)" stroke-width="0.6"/><path d="M 78.4,727.4 77.7,727.4 76.9,727.4 76.1,727.2 75.4,727.0 74.6,726.7 73.8,726.3 73.1,725.8 72.4,725.2 71.8,724.6 71.2,723.9 70.7,723.1 70.2,722.2 69.9,721.3 69.6,720.4 69.4,719.4 69.3,718.3 69.3,717.3 69.4,716.2 69.7,715.1 70.0,714.1 70.4,713.0 71.0,712.0 71.6,711.1 72.4,710.1 73.3,709.3 74.2,708.5 75.3,707.8 76.4,707.2 77.6,706.8 78.8,706.4 80.1,706.1 81.4,706.0 82.8,706.0 84.2,706.1 85.6,706.4 86.9,706.8 88.2,707.4 89.5,708.0 90.8,708.9 91.9,709.8 93.0,710.9 94.0,712.0 94.9,713.3 95.6,714.7 96.2,716.1 96.7,717.7 97.1,719.3 97.3,720.9 97.3,722.6 97.2,724.2 96.9,725.9 96.5,727.6 95.8,729.2 95.1,730.8 94.1,732.3 93.0,733.7 91.8,735.1 90.4,736.3 88.9,737.4 87.3,738.3 85.6,739.1 83.8,739.8 81.9,740.3 80.0,740.6 78.0,740.7 76.1,740.6 74.1,740.3 72.1,739.8 70.2,739.2 68.3,738.3 66.5,737.3 64.7,736.1 63.1,734.7 61.7,733.2 60.3,731.5 59.1,729.6 58.1,727.7 57.3,725.6 56.7,723.5 56.2,721.2 56.0,719.0 56.0,716.7 56.3,714.4 56.7,712.1 57.4,709.8 58.3,707.6 59.4,705.5 60.7,703.5 62.2,701.6 63.9,699.8 65.8,698.2 67.8,696.8 70.0,695.5 72.3,694.5 74.7,693.7 77.2,693.1 79.7,692.8 82.3,692.7 85.0,692.8 87.6,693.2" fill="none" stroke="rgba(255,255,255,0.06)" stroke-width="10" filter="url(#sg)"/><path d="M 78.4,727.4 77.7,727.4 76.9,727.4 76.1,727.2 75.4,727.0 74.6,726.7 73.8,726.3 73.1,725.8 72.4,725.2 71.8,724.6 71.2,723.9 70.7,723.1 70.2,722.2 69.9,721.3 69.6,720.4 69.4,719.4 69.3,718.3 69.3,717.3 69.4,716.2 69.7,715.1 70.0,714.1 70.4,713.0 71.0,712.0 71.6,711.1 72.4,710.1 73.3,709.3 74.2,708.5 75.3,707.8 76.4,707.2 77.6,706.8 78.8,706.4 80.1,706.1 81.4,706.0 82.8,706.0 84.2,706.1 85.6,706.4 86.9,706.8 88.2,707.4 89.5,708.0 90.8,708.9 91.9,709.8 93.0,710.9 94.0,712.0 94.9,713.3 95.6,714.7 96.2,716.1 96.7,717.7 97.1,719.3 97.3,720.9 97.3,722.6 97.2,724.2 96.9,725.9 96.5,727.6 95.8,729.2 95.1,730.8 94.1,732.3 93.0,733.7 91.8,735.1 90.4,736.3 88.9,737.4 87.3,738.3 85.6,739.1 83.8,739.8 81.9,740.3 80.0,740.6 78.0,740.7 76.1,740.6 74.1,740.3 72.1,739.8 70.2,739.2 68.3,738.3 66.5,737.3 64.7,736.1 63.1,734.7 61.7,733.2 60.3,731.5 59.1,729.6 58.1,727.7 57.3,725.6 56.7,723.5 56.2,721.2 56.0,719.0 56.0,716.7 56.3,714.4 56.7,712.1 57.4,709.8 58.3,707.6 59.4,705.5 60.7,703.5 62.2,701.6 63.9,699.8 65.8,698.2 67.8,696.8 70.0,695.5 72.3,694.5 74.7,693.7 77.2,693.1 79.7,692.8 82.3,692.7 85.0,692.8 87.6,693.2" fill="none" stroke="rgba(255,255,255,0.15)" stroke-width="3" filter="url(#g)"/><path d="M 78.4,727.4 77.7,727.4 76.9,727.4 76.1,727.2 75.4,727.0 74.6,726.7 73.8,726.3 73.1,725.8 72.4,725.2 71.8,724.6 71.2,723.9 70.7,723.1 70.2,722.2 69.9,721.3 69.6,720.4 69.4,719.4 69.3,718.3 69.3,717.3 69.4,716.2 69.7,715.1 70.0,714.1 70.4,713.0 71.0,712.0 71.6,711.1 72.4,710.1 73.3,709.3 74.2,708.5 75.3,707.8 76.4,707.2 77.6,706.8 78.8,706.4 80.1,706.1 81.4,706.0 82.8,706.0 84.2,706.1 85.6,706.4 86.9,706.8 88.2,707.4 89.5,708.0 90.8,708.9 91.9,709.8 93.0,710.9 94.0,712.0 94.9,713.3 95.6,714.7 96.2,716.1 96.7,717.7 97.1,719.3 97.3,720.9 97.3,722.6 97.2,724.2 96.9,725.9 96.5,727.6 95.8,729.2 95.1,730.8 94.1,732.3 93.0,733.7 91.8,735.1 90.4,736.3 88.9,737.4 87.3,738.3 85.6,739.1 83.8,739.8 81.9,740.3 80.0,740.6 78.0,740.7 76.1,740.6 74.1,740.3 72.1,739.8 70.2,739.2 68.3,738.3 66.5,737.3 64.7,736.1 63.1,734.7 61.7,733.2 60.3,731.5 59.1,729.6 58.1,727.7 57.3,725.6 56.7,723.5 56.2,721.2 56.0,719.0 56.0,716.7 56.3,714.4 56.7,712.1 57.4,709.8 58.3,707.6 59.4,705.5 60.7,703.5 62.2,701.6 63.9,699.8 65.8,698.2 67.8,696.8 70.0,695.5 72.3,694.5 74.7,693.7 77.2,693.1 79.7,692.8 82.3,692.7 85.0,692.8 87.6,693.2" fill="none" stroke="rgba(255,255,255,0.40)" stroke-width="1.2"/><path d="M 78.4,727.4 77.7,727.4 76.9,727.4 76.1,727.2 75.4,727.0 74.6,726.7 73.8,726.3 73.1,725.8 72.4,725.2 71.8,724.6 71.2,723.9 70.7,723.1 70.2,722.2 69.9,721.3 69.6,720.4 69.4,719.4 69.3,718.3 69.3,717.3 69.4,716.2 69.7,715.1 70.0,714.1 70.4,713.0 71.0,712.0 71.6,711.1 72.4,710.1 73.3,709.3 74.2,708.5 75.3,707.8 76.4,707.2 77.6,706.8 78.8,706.4 80.1,706.1 81.4,706.0 82.8,706.0 84.2,706.1 85.6,706.4 86.9,706.8 88.2,707.4 89.5,708.0 90.8,708.9 91.9,709.8 93.0,710.9 94.0,712.0 94.9,713.3 95.6,714.7 96.2,716.1 96.7,717.7 97.1,719.3 97.3,720.9 97.3,722.6 97.2,724.2 96.9,725.9 96.5,727.6 95.8,729.2 95.1,730.8 94.1,732.3 93.0,733.7 91.8,735.1 90.4,736.3 88.9,737.4 87.3,738.3 85.6,739.1 83.8,739.8 81.9,740.3 80.0,740.6 78.0,740.7 76.1,740.6 74.1,740.3 72.1,739.8 70.2,739.2 68.3,738.3 66.5,737.3 64.7,736.1 63.1,734.7 61.7,733.2 60.3,731.5 59.1,729.6 58.1,727.7 57.3,725.6 56.7,723.5 56.2,721.2 56.0,719.0 56.0,716.7 56.3,714.4 56.7,712.1 57.4,709.8 58.3,707.6 59.4,705.5 60.7,703.5 62.2,701.6 63.9,699.8 65.8,698.2 67.8,696.8 70.0,695.5 72.3,694.5 74.7,693.7 77.2,693.1 79.7,692.8 82.3,692.7 85.0,692.8 87.6,693.2" fill="none" stroke="rgba(220,235,255,0.20)" stroke-width="0.6"/><path d="M 80.0,720.0 C 54.1,735.7 96.3,423.6 50.0,400.0" fill="none" stroke="rgba(255,255,255,0.15)" stroke-width="1.5" filter="url(#g)"/><path d="M 80.0,720.0 C 54.1,735.7 96.3,423.6 50.0,400.0" fill="none" stroke="rgba(255,255,255,0.40)" stroke-width="0.6"/><path d="M 80.0,720.0 C 10.5,655.1 428.5,715.5 400.0,750.0" fill="none" stroke="rgba(255,255,255,0.15)" stroke-width="1.5" filter="url(#g)"/><path d="M 80.0,720.0 C 10.5,655.1 428.5,715.5 400.0,750.0" fill="none" stroke="rgba(255,255,255,0.40)" stroke-width="0.6"/><path d="M 417.9,738.1 419.6,740.4 421.0,742.9 422.1,745.6 422.8,748.6 423.2,751.6 423.1,754.7 422.6,757.8 421.7,760.8 420.4,763.8 418.7,766.6 416.6,769.1 414.1,771.4 411.3,773.4 408.3,775.0 405.0,776.2 401.5,777.0 398.0,777.3 394.3,777.1 390.7,776.5 387.2,775.3 383.8,773.7 380.6,771.6 377.6,769.1 375.0,766.2 372.8,763.0 371.0,759.4 369.7,755.6 368.9,751.6 368.6,747.4 368.9,743.3 369.7,739.2 371.1,735.1 373.0,731.3 375.4,727.7 378.4,724.4 381.7,721.5 385.5,719.0 389.6,717.0 393.9,715.6 398.4,714.8 403.1,714.5 407.8,714.9 412.5,715.9 417.0,717.5 421.3,719.7 425.3,722.5 428.9,725.9 432.1,729.7 434.8,733.9 437.0,738.5 438.5,743.4 439.4,748.5 439.6,753.7 439.1,758.9 437.9,764.1 436.0,769.1 433.5,773.9 430.3,778.3 426.6,782.3 422.3,785.8 417.6,788.7 412.4,791.0 407.0,792.6 401.4,793.5 395.6,793.6 389.9,793.0 384.2,791.7 378.7,789.5 373.5,786.7 368.7,783.1 364.4,779.0 360.6,774.2 357.4,769.0 355.0,763.3 353.3,757.4 352.4,751.2 352.3,744.9 353.0,738.6 354.6,732.4 357.0,726.5 360.2,720.8 364.1,715.6 368.7,711.0 373.9,706.9 379.6,703.5 385.8,700.9 392.3,699.2 399.0,698.2 405.8,698.2 412.7,699.1 419.3,700.9 425.8,703.5 431.9,707.0 437.5,711.3 442.5,716.4 446.8,722.0 450.4,728.3 453.1,735.0 455.0,742.0 455.9,749.3" fill="none" stroke="rgba(255,255,255,0.06)" stroke-width="10" filter="url(#sg)"/><path d="M 417.9,738.1 419.6,740.4 421.0,742.9 422.1,745.6 422.8,748.6 423.2,751.6 423.1,754.7 422.6,757.8 421.7,760.8 420.4,763.8 418.7,766.6 416.6,769.1 414.1,771.4 411.3,773.4 408.3,775.0 405.0,776.2 401.5,777.0 398.0,777.3 394.3,777.1 390.7,776.5 387.2,775.3 383.8,773.7 380.6,771.6 377.6,769.1 375.0,766.2 372.8,763.0 371.0,759.4 369.7,755.6 368.9,751.6 368.6,747.4 368.9,743.3 369.7,739.2 371.1,735.1 373.0,731.3 375.4,727.7 378.4,724.4 381.7,721.5 385.5,719.0 389.6,717.0 393.9,715.6 398.4,714.8 403.1,714.5 407.8,714.9 412.5,715.9 417.0,717.5 421.3,719.7 425.3,722.5 428.9,725.9 432.1,729.7 434.8,733.9 437.0,738.5 438.5,743.4 439.4,748.5 439.6,753.7 439.1,758.9 437.9,764.1 436.0,769.1 433.5,773.9 430.3,778.3 426.6,782.3 422.3,785.8 417.6,788.7 412.4,791.0 407.0,792.6 401.4,793.5 395.6,793.6 389.9,793.0 384.2,791.7 378.7,789.5 373.5,786.7 368.7,783.1 364.4,779.0 360.6,774.2 357.4,769.0 355.0,763.3 353.3,757.4 352.4,751.2 352.3,744.9 353.0,738.6 354.6,732.4 357.0,726.5 360.2,720.8 364.1,715.6 368.7,711.0 373.9,706.9 379.6,703.5 385.8,700.9 392.3,699.2 399.0,698.2 405.8,698.2 412.7,699.1 419.3,700.9 425.8,703.5 431.9,707.0 437.5,711.3 442.5,716.4 446.8,722.0 450.4,728.3 453.1,735.0 455.0,742.0 455.9,749.3" fill="none" stroke="rgba(255,255,255,0.15)" stroke-width="3" filter="url(#g)"/><path d="M 417.9,738.1 419.6,740.4 421.0,742.9 422.1,745.6 422.8,748.6 423.2,751.6 423.1,754.7 422.6,757.8 421.7,760.8 420.4,763.8 418.7,766.6 416.6,769.1 414.1,771.4 411.3,773.4 408.3,775.0 405.0,776.2 401.5,777.0 398.0,777.3 394.3,777.1 390.7,776.5 387.2,775.3 383.8,773.7 380.6,771.6 377.6,769.1 375.0,766.2 372.8,763.0 371.0,759.4 369.7,755.6 368.9,751.6 368.6,747.4 368.9,743.3 369.7,739.2 371.1,735.1 373.0,731.3 375.4,727.7 378.4,724.4 381.7,721.5 385.5,719.0 389.6,717.0 393.9,715.6 398.4,714.8 403.1,714.5 407.8,714.9 412.5,715.9 417.0,717.5 421.3,719.7 425.3,722.5 428.9,725.9 432.1,729.7 434.8,733.9 437.0,738.5 438.5,743.4 439.4,748.5 439.6,753.7 439.1,758.9 437.9,764.1 436.0,769.1 433.5,773.9 430.3,778.3 426.6,782.3 422.3,785.8 417.6,788.7 412.4,791.0 407.0,792.6 401.4,793.5 395.6,793.6 389.9,793.0 384.2,791.7 378.7,789.5 373.5,786.7 368.7,783.1 364.4,779.0 360.6,774.2 357.4,769.0 355.0,763.3 353.3,757.4 352.4,751.2 352.3,744.9 353.0,738.6 354.6,732.4 357.0,726.5 360.2,720.8 364.1,715.6 368.7,711.0 373.9,706.9 379.6,703.5 385.8,700.9 392.3,699.2 399.0,698.2 405.8,698.2 412.7,699.1 419.3,700.9 425.8,703.5 431.9,707.0 437.5,711.3 442.5,716.4 446.8,722.0 450.4,728.3 453.1,735.0 455.0,742.0 455.9,749.3" fill="none" stroke="rgba(255,255,255,0.40)" stroke-width="1.2"/><path d="M 417.9,738.1 419.6,740.4 421.0,742.9 422.1,745.6 422.8,748.6 423.2,751.6 423.1,754.7 422.6,757.8 421.7,760.8 420.4,763.8 418.7,766.6 416.6,769.1 414.1,771.4 411.3,773.4 408.3,775.0 405.0,776.2 401.5,777.0 398.0,777.3 394.3,777.1 390.7,776.5 387.2,775.3 383.8,773.7 380.6,771.6 377.6,769.1 375.0,766.2 372.8,763.0 371.0,759.4 369.7,755.6 368.9,751.6 368.6,747.4 368.9,743.3 369.7,739.2 371.1,735.1 373.0,731.3 375.4,727.7 378.4,724.4 381.7,721.5 385.5,719.0 389.6,717.0 393.9,715.6 398.4,714.8 403.1,714.5 407.8,714.9 412.5,715.9 417.0,717.5 421.3,719.7 425.3,722.5 428.9,725.9 432.1,729.7 434.8,733.9 437.0,738.5 438.5,743.4 439.4,748.5 439.6,753.7 439.1,758.9 437.9,764.1 436.0,769.1 433.5,773.9 430.3,778.3 426.6,782.3 422.3,785.8 417.6,788.7 412.4,791.0 407.0,792.6 401.4,793.5 395.6,793.6 389.9,793.0 384.2,791.7 378.7,789.5 373.5,786.7 368.7,783.1 364.4,779.0 360.6,774.2 357.4,769.0 355.0,763.3 353.3,757.4 352.4,751.2 352.3,744.9 353.0,738.6 354.6,732.4 357.0,726.5 360.2,720.8 364.1,715.6 368.7,711.0 373.9,706.9 379.6,703.5 385.8,700.9 392.3,699.2 399.0,698.2 405.8,698.2 412.7,699.1 419.3,700.9 425.8,703.5 431.9,707.0 437.5,711.3 442.5,716.4 446.8,722.0 450.4,728.3 453.1,735.0 455.0,742.0 455.9,749.3" fill="none" stroke="rgba(220,235,255,0.20)" stroke-width="0.6"/><path d="M 400.0,750.0 C 373.3,763.2 342.6,626.0 400.0,650.0" fill="none" stroke="rgba(255,255,255,0.15)" stroke-width="1.5" filter="url(#g)"/><path d="M 400.0,750.0 C 373.3,763.2 342.6,626.0 400.0,650.0" fill="none" stroke="rgba(255,255,255,0.40)" stroke-width="0.6"/><path d="M 400.0,750.0 C 474.8,781.8 62.7,735.2 80.0,720.0" fill="none" stroke="rgba(255,255,255,0.15)" stroke-width="1.5" filter="url(#g)"/><path d="M 400.0,750.0 C 474.8,781.8 62.7,735.2 80.0,720.0" fill="none" stroke="rgba(255,255,255,0.40)" stroke-width="0.6"/><path d="M 711.1,728.7 709.9,727.7 708.8,726.5 707.8,725.2 707.0,723.7 706.4,722.1 706.0,720.3 705.8,718.6 705.9,716.8 706.1,714.9 706.6,713.1 707.4,711.4 708.4,709.7 709.6,708.1 711.0,706.7 712.6,705.5 714.4,704.4 716.3,703.6 718.4,703.0 720.5,702.7 722.7,702.7 724.9,702.9 727.1,703.4 729.3,704.2 731.3,705.3 733.2,706.6 735.0,708.2 736.6,710.0 737.9,712.1 739.0,714.3 739.8,716.7 740.3,719.2 740.5,721.7 740.4,724.3 739.9,726.9 739.1,729.5 738.0,731.9 736.6,734.2 734.9,736.4 732.8,738.3 730.6,740.0 728.1,741.4 725.4,742.5 722.6,743.2 719.7,743.6 716.7,743.7 713.7,743.3 710.8,742.6 707.9,741.5 705.2,740.0 702.6,738.2 700.3,736.0 698.2,733.6 696.5,730.9 695.1,727.9 694.0,724.8 693.4,721.5 693.1,718.2 693.3,714.8 693.9,711.4 695.0,708.1 696.4,705.0 698.3,702.0 700.5,699.3 703.1,696.8 706.0,694.6 709.2,692.9 712.6,691.5 716.2,690.5 719.9,690.0 723.7,690.0 727.4,690.5 731.2,691.4 734.8,692.8 738.2,694.6 741.4,696.9 744.3,699.6 746.9,702.6 749.0,706.0 750.8,709.7 752.1,713.5 752.9,717.6 753.2,721.7 753.0,725.9 752.2,730.0 751.0,734.1 749.2,737.9 746.9,741.6 744.2,745.0 741.0,748.0 737.5,750.6 733.7,752.8 729.5,754.5 725.2,755.7 720.7,756.3 716.2,756.3 711.6,755.8 707.1,754.7 702.8,753.1 698.6,750.9 694.8,748.2" fill="none" stroke="rgba(255,255,255,0.06)" stroke-width="10" filter="url(#sg)"/><path d="M 711.1,728.7 709.9,727.7 708.8,726.5 707.8,725.2 707.0,723.7 706.4,722.1 706.0,720.3 705.8,718.6 705.9,716.8 706.1,714.9 706.6,713.1 707.4,711.4 708.4,709.7 709.6,708.1 711.0,706.7 712.6,705.5 714.4,704.4 716.3,703.6 718.4,703.0 720.5,702.7 722.7,702.7 724.9,702.9 727.1,703.4 729.3,704.2 731.3,705.3 733.2,706.6 735.0,708.2 736.6,710.0 737.9,712.1 739.0,714.3 739.8,716.7 740.3,719.2 740.5,721.7 740.4,724.3 739.9,726.9 739.1,729.5 738.0,731.9 736.6,734.2 734.9,736.4 732.8,738.3 730.6,740.0 728.1,741.4 725.4,742.5 722.6,743.2 719.7,743.6 716.7,743.7 713.7,743.3 710.8,742.6 707.9,741.5 705.2,740.0 702.6,738.2 700.3,736.0 698.2,733.6 696.5,730.9 695.1,727.9 694.0,724.8 693.4,721.5 693.1,718.2 693.3,714.8 693.9,711.4 695.0,708.1 696.4,705.0 698.3,702.0 700.5,699.3 703.1,696.8 706.0,694.6 709.2,692.9 712.6,691.5 716.2,690.5 719.9,690.0 723.7,690.0 727.4,690.5 731.2,691.4 734.8,692.8 738.2,694.6 741.4,696.9 744.3,699.6 746.9,702.6 749.0,706.0 750.8,709.7 752.1,713.5 752.9,717.6 753.2,721.7 753.0,725.9 752.2,730.0 751.0,734.1 749.2,737.9 746.9,741.6 744.2,745.0 741.0,748.0 737.5,750.6 733.7,752.8 729.5,754.5 725.2,755.7 720.7,756.3 716.2,756.3 711.6,755.8 707.1,754.7 702.8,753.1 698.6,750.9 694.8,748.2" fill="none" stroke="rgba(255,255,255,0.15)" stroke-width="3" filter="url(#g)"/><path d="M 711.1,728.7 709.9,727.7 708.8,726.5 707.8,725.2 707.0,723.7 706.4,722.1 706.0,720.3 705.8,718.6 705.9,716.8 706.1,714.9 706.6,713.1 707.4,711.4 708.4,709.7 709.6,708.1 711.0,706.7 712.6,705.5 714.4,704.4 716.3,703.6 718.4,703.0 720.5,702.7 722.7,702.7 724.9,702.9 727.1,703.4 729.3,704.2 731.3,705.3 733.2,706.6 735.0,708.2 736.6,710.0 737.9,712.1 739.0,714.3 739.8,716.7 740.3,719.2 740.5,721.7 740.4,724.3 739.9,726.9 739.1,729.5 738.0,731.9 736.6,734.2 734.9,736.4 732.8,738.3 730.6,740.0 728.1,741.4 725.4,742.5 722.6,743.2 719.7,743.6 716.7,743.7 713.7,743.3 710.8,742.6 707.9,741.5 705.2,740.0 702.6,738.2 700.3,736.0 698.2,733.6 696.5,730.9 695.1,727.9 694.0,724.8 693.4,721.5 693.1,718.2 693.3,714.8 693.9,711.4 695.0,708.1 696.4,705.0 698.3,702.0 700.5,699.3 703.1,696.8 706.0,694.6 709.2,692.9 712.6,691.5 716.2,690.5 719.9,690.0 723.7,690.0 727.4,690.5 731.2,691.4 734.8,692.8 738.2,694.6 741.4,696.9 744.3,699.6 746.9,702.6 749.0,706.0 750.8,709.7 752.1,713.5 752.9,717.6 753.2,721.7 753.0,725.9 752.2,730.0 751.0,734.1 749.2,737.9 746.9,741.6 744.2,745.0 741.0,748.0 737.5,750.6 733.7,752.8 729.5,754.5 725.2,755.7 720.7,756.3 716.2,756.3 711.6,755.8 707.1,754.7 702.8,753.1 698.6,750.9 694.8,748.2" fill="none" stroke="rgba(255,255,255,0.40)" stroke-width="1.2"/><path d="M 711.1,728.7 709.9,727.7 708.8,726.5 707.8,725.2 707.0,723.7 706.4,722.1 706.0,720.3 705.8,718.6 705.9,716.8 706.1,714.9 706.6,713.1 707.4,711.4 708.4,709.7 709.6,708.1 711.0,706.7 712.6,705.5 714.4,704.4 716.3,703.6 718.4,703.0 720.5,702.7 722.7,702.7 724.9,702.9 727.1,703.4 729.3,704.2 731.3,705.3 733.2,706.6 735.0,708.2 736.6,710.0 737.9,712.1 739.0,714.3 739.8,716.7 740.3,719.2 740.5,721.7 740.4,724.3 739.9,726.9 739.1,729.5 738.0,731.9 736.6,734.2 734.9,736.4 732.8,738.3 730.6,740.0 728.1,741.4 725.4,742.5 722.6,743.2 719.7,743.6 716.7,743.7 713.7,743.3 710.8,742.6 707.9,741.5 705.2,740.0 702.6,738.2 700.3,736.0 698.2,733.6 696.5,730.9 695.1,727.9 694.0,724.8 693.4,721.5 693.1,718.2 693.3,714.8 693.9,711.4 695.0,708.1 696.4,705.0 698.3,702.0 700.5,699.3 703.1,696.8 706.0,694.6 709.2,692.9 712.6,691.5 716.2,690.5 719.9,690.0 723.7,690.0 727.4,690.5 731.2,691.4 734.8,692.8 738.2,694.6 741.4,696.9 744.3,699.6 746.9,702.6 749.0,706.0 750.8,709.7 752.1,713.5 752.9,717.6 753.2,721.7 753.0,725.9 752.2,730.0 751.0,734.1 749.2,737.9 746.9,741.6 744.2,745.0 741.0,748.0 737.5,750.6 733.7,752.8 729.5,754.5 725.2,755.7 720.7,756.3 716.2,756.3 711.6,755.8 707.1,754.7 702.8,753.1 698.6,750.9 694.8,748.2" fill="none" stroke="rgba(220,235,255,0.20)" stroke-width="0.6"/><path d="M 720.0,720.0 C 770.1,747.2 452.6,788.2 400.0,750.0" fill="none" stroke="rgba(255,255,255,0.15)" stroke-width="1.5" filter="url(#g)"/><path d="M 720.0,720.0 C 770.1,747.2 452.6,788.2 400.0,750.0" fill="none" stroke="rgba(255,255,255,0.40)" stroke-width="0.6"/><path d="M 720.0,720.0 C 749.7,724.2 773.4,387.7 750.0,400.0" fill="none" stroke="rgba(255,255,255,0.15)" stroke-width="1.5" filter="url(#g)"/><path d="M 720.0,720.0 C 749.7,724.2 773.4,387.7 750.0,400.0" fill="none" stroke="rgba(255,255,255,0.40)" stroke-width="0.6"/><path d="M 403.1,156.5 402.6,156.9 402.1,157.3 401.5,157.6 400.9,157.8 400.3,158.0 399.7,158.2 399.0,158.3 398.3,158.4 397.6,158.4 396.9,158.3 396.2,158.2 395.4,158.0 394.7,157.8 394.0,157.5 393.3,157.1 392.6,156.6 392.0,156.1 391.4,155.6 390.8,154.9 390.3,154.3 389.9,153.5 389.4,152.8 389.1,152.0 388.8,151.1 388.6,150.2 388.4,149.3 388.4,148.3 388.4,147.4 388.4,146.4 388.6,145.4 388.9,144.5 389.2,143.5 389.6,142.6 390.1,141.7 390.7,140.8 391.3,140.0 392.1,139.2 392.9,138.4 393.7,137.7 394.7,137.1 395.6,136.6 396.7,136.1 397.8,135.7 398.9,135.4 400.1,135.2 401.3,135.1 402.5,135.1 403.7,135.2 404.9,135.3 406.1,135.6 407.3,136.0 408.5,136.5 409.7,137.1 410.8,137.8 411.8,138.5 412.8,139.4 413.8,140.4 414.6,141.4 415.4,142.5 416.1,143.7 416.8,145.0 417.3,146.3 417.7,147.6 418.0,149.1 418.2,150.5 418.2,152.0 418.2,153.4 418.0,154.9 417.7,156.4 417.3,157.8 416.8,159.3 416.1,160.7 415.4,162.0 414.5,163.3 413.5,164.6 412.4,165.7 411.2,166.8 409.9,167.8 408.5,168.7 407.1,169.4 405.6,170.1 404.0,170.7 402.3,171.1 400.6,171.4 398.9,171.5 397.2,171.5 395.5,171.4 393.7,171.1 392.0,170.7 390.3,170.2 388.7,169.5 387.0,168.7 385.5,167.7 384.0,166.6 382.6,165.4 381.3,164.1 380.1,162.6 379.0,161.1 378.1,159.4 377.2,157.7" fill="none" stroke="rgba(255,255,255,0.06)" stroke-width="10" filter="url(#sg)"/><path d="M 403.1,156.5 402.6,156.9 402.1,157.3 401.5,157.6 400.9,157.8 400.3,158.0 399.7,158.2 399.0,158.3 398.3,158.4 397.6,158.4 396.9,158.3 396.2,158.2 395.4,158.0 394.7,157.8 394.0,157.5 393.3,157.1 392.6,156.6 392.0,156.1 391.4,155.6 390.8,154.9 390.3,154.3 389.9,153.5 389.4,152.8 389.1,152.0 388.8,151.1 388.6,150.2 388.4,149.3 388.4,148.3 388.4,147.4 388.4,146.4 388.6,145.4 388.9,144.5 389.2,143.5 389.6,142.6 390.1,141.7 390.7,140.8 391.3,140.0 392.1,139.2 392.9,138.4 393.7,137.7 394.7,137.1 395.6,136.6 396.7,136.1 397.8,135.7 398.9,135.4 400.1,135.2 401.3,135.1 402.5,135.1 403.7,135.2 404.9,135.3 406.1,135.6 407.3,136.0 408.5,136.5 409.7,137.1 410.8,137.8 411.8,138.5 412.8,139.4 413.8,140.4 414.6,141.4 415.4,142.5 416.1,143.7 416.8,145.0 417.3,146.3 417.7,147.6 418.0,149.1 418.2,150.5 418.2,152.0 418.2,153.4 418.0,154.9 417.7,156.4 417.3,157.8 416.8,159.3 416.1,160.7 415.4,162.0 414.5,163.3 413.5,164.6 412.4,165.7 411.2,166.8 409.9,167.8 408.5,168.7 407.1,169.4 405.6,170.1 404.0,170.7 402.3,171.1 400.6,171.4 398.9,171.5 397.2,171.5 395.5,171.4 393.7,171.1 392.0,170.7 390.3,170.2 388.7,169.5 387.0,168.7 385.5,167.7 384.0,166.6 382.6,165.4 381.3,164.1 380.1,162.6 379.0,161.1 378.1,159.4 377.2,157.7" fill="none" stroke="rgba(255,255,255,0.15)" stroke-width="3" filter="url(#g)"/><path d="M 403.1,156.5 402.6,156.9 402.1,157.3 401.5,157.6 400.9,157.8 400.3,158.0 399.7,158.2 399.0,158.3 398.3,158.4 397.6,158.4 396.9,158.3 396.2,158.2 395.4,158.0 394.7,157.8 394.0,157.5 393.3,157.1 392.6,156.6 392.0,156.1 391.4,155.6 390.8,154.9 390.3,154.3 389.9,153.5 389.4,152.8 389.1,152.0 388.8,151.1 388.6,150.2 388.4,149.3 388.4,148.3 388.4,147.4 388.4,146.4 388.6,145.4 388.9,144.5 389.2,143.5 389.6,142.6 390.1,141.7 390.7,140.8 391.3,140.0 392.1,139.2 392.9,138.4 393.7,137.7 394.7,137.1 395.6,136.6 396.7,136.1 397.8,135.7 398.9,135.4 400.1,135.2 401.3,135.1 402.5,135.1 403.7,135.2 404.9,135.3 406.1,135.6 407.3,136.0 408.5,136.5 409.7,137.1 410.8,137.8 411.8,138.5 412.8,139.4 413.8,140.4 414.6,141.4 415.4,142.5 416.1,143.7 416.8,145.0 417.3,146.3 417.7,147.6 418.0,149.1 418.2,150.5 418.2,152.0 418.2,153.4 418.0,154.9 417.7,156.4 417.3,157.8 416.8,159.3 416.1,160.7 415.4,162.0 414.5,163.3 413.5,164.6 412.4,165.7 411.2,166.8 409.9,167.8 408.5,168.7 407.1,169.4 405.6,170.1 404.0,170.7 402.3,171.1 400.6,171.4 398.9,171.5 397.2,171.5 395.5,171.4 393.7,171.1 392.0,170.7 390.3,170.2 388.7,169.5 387.0,168.7 385.5,167.7 384.0,166.6 382.6,165.4 381.3,164.1 380.1,162.6 379.0,161.1 378.1,159.4 377.2,157.7" fill="none" stroke="rgba(255,255,255,0.40)" stroke-width="1.2"/><path d="M 403.1,156.5 402.6,156.9 402.1,157.3 401.5,157.6 400.9,157.8 400.3,158.0 399.7,158.2 399.0,158.3 398.3,158.4 397.6,158.4 396.9,158.3 396.2,158.2 395.4,158.0 394.7,157.8 394.0,157.5 393.3,157.1 392.6,156.6 392.0,156.1 391.4,155.6 390.8,154.9 390.3,154.3 389.9,153.5 389.4,152.8 389.1,152.0 388.8,151.1 388.6,150.2 388.4,149.3 388.4,148.3 388.4,147.4 388.4,146.4 388.6,145.4 388.9,144.5 389.2,143.5 389.6,142.6 390.1,141.7 390.7,140.8 391.3,140.0 392.1,139.2 392.9,138.4 393.7,137.7 394.7,137.1 395.6,136.6 396.7,136.1 397.8,135.7 398.9,135.4 400.1,135.2 401.3,135.1 402.5,135.1 403.7,135.2 404.9,135.3 406.1,135.6 407.3,136.0 408.5,136.5 409.7,137.1 410.8,137.8 411.8,138.5 412.8,139.4 413.8,140.4 414.6,141.4 415.4,142.5 416.1,143.7 416.8,145.0 417.3,146.3 417.7,147.6 418.0,149.1 418.2,150.5 418.2,152.0 418.2,153.4 418.0,154.9 417.7,156.4 417.3,157.8 416.8,159.3 416.1,160.7 415.4,162.0 414.5,163.3 413.5,164.6 412.4,165.7 411.2,166.8 409.9,167.8 408.5,168.7 407.1,169.4 405.6,170.1 404.0,170.7 402.3,171.1 400.6,171.4 398.9,171.5 397.2,171.5 395.5,171.4 393.7,171.1 392.0,170.7 390.3,170.2 388.7,169.5 387.0,168.7 385.5,167.7 384.0,166.6 382.6,165.4 381.3,164.1 380.1,162.6 379.0,161.1 378.1,159.4 377.2,157.7" fill="none" stroke="rgba(220,235,255,0.20)" stroke-width="0.6"/><path d="M 400.0,150.0 C 471.6,147.8 356.2,-8.0 400.0,50.0" fill="none" stroke="rgba(255,255,255,0.15)" stroke-width="1.5" filter="url(#g)"/><path d="M 400.0,150.0 C 471.6,147.8 356.2,-8.0 400.0,50.0" fill="none" stroke="rgba(255,255,255,0.40)" stroke-width="0.6"/><path d="M 400.0,150.0 C 332.3,205.1 336.2,443.3 400.0,400.0" fill="none" stroke="rgba(255,255,255,0.15)" stroke-width="1.5" filter="url(#g)"/><path d="M 400.0,150.0 C 332.3,205.1 336.2,443.3 400.0,400.0" fill="none" stroke="rgba(255,255,255,0.40)" stroke-width="0.6"/><path d="M 407.7,651.9 407.7,652.6 407.7,653.4 407.6,654.2 407.4,655.0 407.2,655.8 406.8,656.6 406.4,657.4 405.8,658.2 405.2,658.9 404.5,659.6 403.7,660.2 402.9,660.7 402.0,661.2 401.0,661.6 399.9,661.9 398.8,662.1 397.7,662.2 396.6,662.2 395.4,662.1 394.2,661.9 393.0,661.6 391.9,661.1 390.7,660.6 389.6,659.9 388.6,659.1 387.6,658.2 386.7,657.2 385.8,656.1 385.1,654.9 384.5,653.6 384.0,652.2 383.6,650.8 383.3,649.3 383.1,647.8 383.1,646.2 383.3,644.7 383.6,643.1 384.0,641.5 384.6,640.0 385.4,638.5 386.3,637.0 387.3,635.7 388.5,634.4 389.8,633.2 391.2,632.1 392.7,631.1 394.4,630.3 396.1,629.6 397.9,629.1 399.8,628.7 401.7,628.5 403.6,628.5 405.6,628.6 407.6,629.0 409.5,629.5 411.5,630.2 413.3,631.1 415.2,632.1 416.9,633.4 418.5,634.8 420.0,636.3 421.4,638.0 422.6,639.9 423.7,641.8 424.6,643.9 425.3,646.1 425.8,648.3 426.1,650.7 426.2,653.0 426.1,655.4 425.8,657.8 425.2,660.1 424.5,662.5 423.5,664.7 422.3,666.9 420.9,669.0 419.3,671.0 417.5,672.9 415.5,674.6 413.4,676.1 411.1,677.4 408.7,678.6 406.2,679.5 403.6,680.2 400.9,680.7 398.1,680.9 395.3,680.9 392.5,680.6 389.7,680.0 387.0,679.2 384.3,678.2 381.7,676.9 379.2,675.4 376.8,673.6 374.6,671.6 372.6,669.4 370.7,667.1 369.1,664.5 367.6,661.8 366.5,658.9" fill="none" stroke="rgba(255,255,255,0.06)" stroke-width="10" filter="url(#sg)"/><path d="M 407.7,651.9 407.7,652.6 407.7,653.4 407.6,654.2 407.4,655.0 407.2,655.8 406.8,656.6 406.4,657.4 405.8,658.2 405.2,658.9 404.5,659.6 403.7,660.2 402.9,660.7 402.0,661.2 401.0,661.6 399.9,661.9 398.8,662.1 397.7,662.2 396.6,662.2 395.4,662.1 394.2,661.9 393.0,661.6 391.9,661.1 390.7,660.6 389.6,659.9 388.6,659.1 387.6,658.2 386.7,657.2 385.8,656.1 385.1,654.9 384.5,653.6 384.0,652.2 383.6,650.8 383.3,649.3 383.1,647.8 383.1,646.2 383.3,644.7 383.6,643.1 384.0,641.5 384.6,640.0 385.4,638.5 386.3,637.0 387.3,635.7 388.5,634.4 389.8,633.2 391.2,632.1 392.7,631.1 394.4,630.3 396.1,629.6 397.9,629.1 399.8,628.7 401.7,628.5 403.6,628.5 405.6,628.6 407.6,629.0 409.5,629.5 411.5,630.2 413.3,631.1 415.2,632.1 416.9,633.4 418.5,634.8 420.0,636.3 421.4,638.0 422.6,639.9 423.7,641.8 424.6,643.9 425.3,646.1 425.8,648.3 426.1,650.7 426.2,653.0 426.1,655.4 425.8,657.8 425.2,660.1 424.5,662.5 423.5,664.7 422.3,666.9 420.9,669.0 419.3,671.0 417.5,672.9 415.5,674.6 413.4,676.1 411.1,677.4 408.7,678.6 406.2,679.5 403.6,680.2 400.9,680.7 398.1,680.9 395.3,680.9 392.5,680.6 389.7,680.0 387.0,679.2 384.3,678.2 381.7,676.9 379.2,675.4 376.8,673.6 374.6,671.6 372.6,669.4 370.7,667.1 369.1,664.5 367.6,661.8 366.5,658.9" fill="none" stroke="rgba(255,255,255,0.15)" stroke-width="3" filter="url(#g)"/><path d="M 407.7,651.9 407.7,652.6 407.7,653.4 407.6,654.2 407.4,655.0 407.2,655.8 406.8,656.6 406.4,657.4 405.8,658.2 405.2,658.9 404.5,659.6 403.7,660.2 402.9,660.7 402.0,661.2 401.0,661.6 399.9,661.9 398.8,662.1 397.7,662.2 396.6,662.2 395.4,662.1 394.2,661.9 393.0,661.6 391.9,661.1 390.7,660.6 389.6,659.9 388.6,659.1 387.6,658.2 386.7,657.2 385.8,656.1 385.1,654.9 384.5,653.6 384.0,652.2 383.6,650.8 383.3,649.3 383.1,647.8 383.1,646.2 383.3,644.7 383.6,643.1 384.0,641.5 384.6,640.0 385.4,638.5 386.3,637.0 387.3,635.7 388.5,634.4 389.8,633.2 391.2,632.1 392.7,631.1 394.4,630.3 396.1,629.6 397.9,629.1 399.8,628.7 401.7,628.5 403.6,628.5 405.6,628.6 407.6,629.0 409.5,629.5 411.5,630.2 413.3,631.1 415.2,632.1 416.9,633.4 418.5,634.8 420.0,636.3 421.4,638.0 422.6,639.9 423.7,641.8 424.6,643.9 425.3,646.1 425.8,648.3 426.1,650.7 426.2,653.0 426.1,655.4 425.8,657.8 425.2,660.1 424.5,662.5 423.5,664.7 422.3,666.9 420.9,669.0 419.3,671.0 417.5,672.9 415.5,674.6 413.4,676.1 411.1,677.4 408.7,678.6 406.2,679.5 403.6,680.2 400.9,680.7 398.1,680.9 395.3,680.9 392.5,680.6 389.7,680.0 387.0,679.2 384.3,678.2 381.7,676.9 379.2,675.4 376.8,673.6 374.6,671.6 372.6,669.4 370.7,667.1 369.1,664.5 367.6,661.8 366.5,658.9" fill="none" stroke="rgba(255,255,255,0.40)" stroke-width="1.2"/><path d="M 407.7,651.9 407.7,652.6 407.7,653.4 407.6,654.2 407.4,655.0 407.2,655.8 406.8,656.6 406.4,657.4 405.8,658.2 405.2,658.9 404.5,659.6 403.7,660.2 402.9,660.7 402.0,661.2 401.0,661.6 399.9,661.9 398.8,662.1 397.7,662.2 396.6,662.2 395.4,662.1 394.2,661.9 393.0,661.6 391.9,661.1 390.7,660.6 389.6,659.9 388.6,659.1 387.6,658.2 386.7,657.2 385.8,656.1 385.1,654.9 384.5,653.6 384.0,652.2 383.6,650.8 383.3,649.3 383.1,647.8 383.1,646.2 383.3,644.7 383.6,643.1 384.0,641.5 384.6,640.0 385.4,638.5 386.3,637.0 387.3,635.7 388.5,634.4 389.8,633.2 391.2,632.1 392.7,631.1 394.4,630.3 396.1,629.6 397.9,629.1 399.8,628.7 401.7,628.5 403.6,628.5 405.6,628.6 407.6,629.0 409.5,629.5 411.5,630.2 413.3,631.1 415.2,632.1 416.9,633.4 418.5,634.8 420.0,636.3 421.4,638.0 422.6,639.9 423.7,641.8 424.6,643.9 425.3,646.1 425.8,648.3 426.1,650.7 426.2,653.0 426.1,655.4 425.8,657.8 425.2,660.1 424.5,662.5 423.5,664.7 422.3,666.9 420.9,669.0 419.3,671.0 417.5,672.9 415.5,674.6 413.4,676.1 411.1,677.4 408.7,678.6 406.2,679.5 403.6,680.2 400.9,680.7 398.1,680.9 395.3,680.9 392.5,680.6 389.7,680.0 387.0,679.2 384.3,678.2 381.7,676.9 379.2,675.4 376.8,673.6 374.6,671.6 372.6,669.4 370.7,667.1 369.1,664.5 367.6,661.8 366.5,658.9" fill="none" stroke="rgba(220,235,255,0.20)" stroke-width="0.6"/><path d="M 400.0,650.0 C 442.6,591.0 380.3,696.0 400.0,750.0" fill="none" stroke="rgba(255,255,255,0.15)" stroke-width="1.5" filter="url(#g)"/><path d="M 400.0,650.0 C 442.6,591.0 380.3,696.0 400.0,750.0" fill="none" stroke="rgba(255,255,255,0.40)" stroke-width="0.6"/><path d="M 400.0,650.0 C 453.0,693.4 449.4,346.5 400.0,400.0" fill="none" stroke="rgba(255,255,255,0.15)" stroke-width="1.5" filter="url(#g)"/><path d="M 400.0,650.0 C 453.0,693.4 449.4,346.5 400.0,400.0" fill="none" stroke="rgba(255,255,255,0.40)" stroke-width="0.6"/><path d="M 143.5,387.0 144.5,386.3 145.6,385.8 146.7,385.3 147.9,384.9 149.1,384.6 150.4,384.4 151.7,384.3 153.0,384.3 154.3,384.4 155.6,384.7 156.9,385.0 158.2,385.5 159.5,386.1 160.7,386.7 161.9,387.5 163.0,388.4 164.0,389.4 165.0,390.5 165.9,391.6 166.7,392.9 167.4,394.2 167.9,395.6 168.4,397.0 168.8,398.5 169.0,400.1 169.1,401.6 169.1,403.2 168.9,404.8 168.7,406.4 168.2,408.0 167.7,409.5 167.0,411.0 166.2,412.5 165.3,413.9 164.2,415.2 163.0,416.4 161.8,417.6 160.4,418.6 158.9,419.6 157.3,420.4 155.7,421.1 154.0,421.7 152.2,422.1 150.4,422.4 148.6,422.5 146.7,422.5 144.9,422.4 143.0,422.0 141.2,421.6 139.4,420.9 137.6,420.2 135.9,419.2 134.3,418.1 132.7,416.9 131.2,415.6 129.9,414.1 128.7,412.5 127.5,410.8 126.6,409.0 125.7,407.1 125.1,405.2 124.6,403.1 124.2,401.1 124.0,399.0 124.0,396.8 124.2,394.7 124.5,392.6 125.1,390.4 125.8,388.4 126.6,386.3 127.7,384.4 128.9,382.5 130.2,380.7 131.8,379.0 133.4,377.5 135.2,376.0 137.1,374.8 139.2,373.6 141.3,372.7 143.5,371.9 145.8,371.3 148.1,370.8 150.5,370.6 152.9,370.6 155.3,370.7 157.8,371.1 160.1,371.6 162.5,372.4 164.8,373.4 167.0,374.5 169.1,375.8 171.2,377.3 173.1,379.0 174.8,380.8 176.5,382.8 177.9,385.0 179.2,387.2 180.3,389.6 181.3,392.0 182.0,394.6" fill="none" stroke="rgba(255,255,255,0.06)" stroke-width="10" filter="url(#sg)"/><path d="M 143.5,387.0 144.5,386.3 145.6,385.8 146.7,385.3 147.9,384.9 149.1,384.6 150.4,384.4 151.7,384.3 153.0,384.3 154.3,384.4 155.6,384.7 156.9,385.0 158.2,385.5 159.5,386.1 160.7,386.7 161.9,387.5 163.0,388.4 164.0,389.4 165.0,390.5 165.9,391.6 166.7,392.9 167.4,394.2 167.9,395.6 168.4,397.0 168.8,398.5 169.0,400.1 169.1,401.6 169.1,403.2 168.9,404.8 168.7,406.4 168.2,408.0 167.7,409.5 167.0,411.0 166.2,412.5 165.3,413.9 164.2,415.2 163.0,416.4 161.8,417.6 160.4,418.6 158.9,419.6 157.3,420.4 155.7,421.1 154.0,421.7 152.2,422.1 150.4,422.4 148.6,422.5 146.7,422.5 144.9,422.4 143.0,422.0 141.2,421.6 139.4,420.9 137.6,420.2 135.9,419.2 134.3,418.1 132.7,416.9 131.2,415.6 129.9,414.1 128.7,412.5 127.5,410.8 126.6,409.0 125.7,407.1 125.1,405.2 124.6,403.1 124.2,401.1 124.0,399.0 124.0,396.8 124.2,394.7 124.5,392.6 125.1,390.4 125.8,388.4 126.6,386.3 127.7,384.4 128.9,382.5 130.2,380.7 131.8,379.0 133.4,377.5 135.2,376.0 137.1,374.8 139.2,373.6 141.3,372.7 143.5,371.9 145.8,371.3 148.1,370.8 150.5,370.6 152.9,370.6 155.3,370.7 157.8,371.1 160.1,371.6 162.5,372.4 164.8,373.4 167.0,374.5 169.1,375.8 171.2,377.3 173.1,379.0 174.8,380.8 176.5,382.8 177.9,385.0 179.2,387.2 180.3,389.6 181.3,392.0 182.0,394.6" fill="none" stroke="rgba(255,255,255,0.15)" stroke-width="3" filter="url(#g)"/><path d="M 143.5,387.0 144.5,386.3 145.6,385.8 146.7,385.3 147.9,384.9 149.1,384.6 150.4,384.4 151.7,384.3 153.0,384.3 154.3,384.4 155.6,384.7 156.9,385.0 158.2,385.5 159.5,386.1 160.7,386.7 161.9,387.5 163.0,388.4 164.0,389.4 165.0,390.5 165.9,391.6 166.7,392.9 167.4,394.2 167.9,395.6 168.4,397.0 168.8,398.5 169.0,400.1 169.1,401.6 169.1,403.2 168.9,404.8 168.7,406.4 168.2,408.0 167.7,409.5 167.0,411.0 166.2,412.5 165.3,413.9 164.2,415.2 163.0,416.4 161.8,417.6 160.4,418.6 158.9,419.6 157.3,420.4 155.7,421.1 154.0,421.7 152.2,422.1 150.4,422.4 148.6,422.5 146.7,422.5 144.9,422.4 143.0,422.0 141.2,421.6 139.4,420.9 137.6,420.2 135.9,419.2 134.3,418.1 132.7,416.9 131.2,415.6 129.9,414.1 128.7,412.5 127.5,410.8 126.6,409.0 125.7,407.1 125.1,405.2 124.6,403.1 124.2,401.1 124.0,399.0 124.0,396.8 124.2,394.7 124.5,392.6 125.1,390.4 125.8,388.4 126.6,386.3 127.7,384.4 128.9,382.5 130.2,380.7 131.8,379.0 133.4,377.5 135.2,376.0 137.1,374.8 139.2,373.6 141.3,372.7 143.5,371.9 145.8,371.3 148.1,370.8 150.5,370.6 152.9,370.6 155.3,370.7 157.8,371.1 160.1,371.6 162.5,372.4 164.8,373.4 167.0,374.5 169.1,375.8 171.2,377.3 173.1,379.0 174.8,380.8 176.5,382.8 177.9,385.0 179.2,387.2 180.3,389.6 181.3,392.0 182.0,394.6" fill="none" stroke="rgba(255,255,255,0.40)" stroke-width="1.2"/><path d="M 143.5,387.0 144.5,386.3 145.6,385.8 146.7,385.3 147.9,384.9 149.1,384.6 150.4,384.4 151.7,384.3 153.0,384.3 154.3,384.4 155.6,384.7 156.9,385.0 158.2,385.5 159.5,386.1 160.7,386.7 161.9,387.5 163.0,388.4 164.0,389.4 165.0,390.5 165.9,391.6 166.7,392.9 167.4,394.2 167.9,395.6 168.4,397.0 168.8,398.5 169.0,400.1 169.1,401.6 169.1,403.2 168.9,404.8 168.7,406.4 168.2,408.0 167.7,409.5 167.0,411.0 166.2,412.5 165.3,413.9 164.2,415.2 163.0,416.4 161.8,417.6 160.4,418.6 158.9,419.6 157.3,420.4 155.7,421.1 154.0,421.7 152.2,422.1 150.4,422.4 148.6,422.5 146.7,422.5 144.9,422.4 143.0,422.0 141.2,421.6 139.4,420.9 137.6,420.2 135.9,419.2 134.3,418.1 132.7,416.9 131.2,415.6 129.9,414.1 128.7,412.5 127.5,410.8 126.6,409.0 125.7,407.1 125.1,405.2 124.6,403.1 124.2,401.1 124.0,399.0 124.0,396.8 124.2,394.7 124.5,392.6 125.1,390.4 125.8,388.4 126.6,386.3 127.7,384.4 128.9,382.5 130.2,380.7 131.8,379.0 133.4,377.5 135.2,376.0 137.1,374.8 139.2,373.6 141.3,372.7 143.5,371.9 145.8,371.3 148.1,370.8 150.5,370.6 152.9,370.6 155.3,370.7 157.8,371.1 160.1,371.6 162.5,372.4 164.8,373.4 167.0,374.5 169.1,375.8 171.2,377.3 173.1,379.0 174.8,380.8 176.5,382.8 177.9,385.0 179.2,387.2 180.3,389.6 181.3,392.0 182.0,394.6" fill="none" stroke="rgba(220,235,255,0.20)" stroke-width="0.6"/><path d="M 150.0,400.0 C 141.1,365.6 89.8,391.8 50.0,400.0" fill="none" stroke="rgba(255,255,255,0.15)" stroke-width="1.5" filter="url(#g)"/><path d="M 150.0,400.0 C 141.1,365.6 89.8,391.8 50.0,400.0" fill="none" stroke="rgba(255,255,255,0.40)" stroke-width="0.6"/><path d="M 150.0,400.0 C 155.4,369.5 449.4,395.0 400.0,400.0" fill="none" stroke="rgba(255,255,255,0.15)" stroke-width="1.5" filter="url(#g)"/><path d="M 150.0,400.0 C 155.4,369.5 449.4,395.0 400.0,400.0" fill="none" stroke="rgba(255,255,255,0.40)" stroke-width="0.6"/><path d="M 668.7,393.5 669.8,396.2 670.4,398.9 670.6,401.8 670.5,404.8 669.9,407.7 668.9,410.5 667.5,413.2 665.6,415.8 663.5,418.0 661.0,420.0 658.2,421.6 655.1,422.8 651.9,423.6 648.6,424.0 645.2,423.8 641.8,423.2 638.5,422.1 635.4,420.5 632.4,418.5 629.8,416.0 627.5,413.2 625.6,410.0 624.2,406.6 623.2,403.0 622.7,399.2 622.8,395.3 623.5,391.5 624.6,387.7 626.4,384.2 628.6,380.8 631.3,377.8 634.4,375.1 637.9,372.9 641.7,371.2 645.8,370.0 650.0,369.5 654.3,369.5 658.6,370.1 662.9,371.3 666.9,373.1 670.7,375.5 674.1,378.5 677.1,381.9 679.7,385.7 681.7,389.9 683.1,394.4 683.8,399.0 683.9,403.8 683.3,408.6 682.1,413.3 680.2,417.8 677.6,422.0 674.5,425.9 670.8,429.3 666.7,432.1 662.1,434.4 657.2,436.1 652.1,437.0 646.9,437.3 641.7,436.8 636.5,435.5 631.5,433.5 626.9,430.9 622.6,427.6 618.7,423.6 615.5,419.2 612.9,414.3 610.9,409.0 609.8,403.5 609.4,397.8 609.8,392.1 611.0,386.5 613.0,381.0 615.8,375.9 619.3,371.1 623.4,366.9 628.2,363.2 633.4,360.3 639.0,358.1 645.0,356.6 651.1,356.1 657.2,356.3 663.4,357.5 669.3,359.5 674.9,362.4 680.1,366.0 684.8,370.3 688.9,375.3 692.2,380.9 694.7,386.9 696.4,393.2 697.2,399.8 697.1,406.4 696.0,413.0 694.0,419.4 691.1,425.5 687.4,431.2 682.9,436.4 677.6,440.9 671.8,444.6" fill="none" stroke="rgba(255,255,255,0.06)" stroke-width="10" filter="url(#sg)"/><path d="M 668.7,393.5 669.8,396.2 670.4,398.9 670.6,401.8 670.5,404.8 669.9,407.7 668.9,410.5 667.5,413.2 665.6,415.8 663.5,418.0 661.0,420.0 658.2,421.6 655.1,422.8 651.9,423.6 648.6,424.0 645.2,423.8 641.8,423.2 638.5,422.1 635.4,420.5 632.4,418.5 629.8,416.0 627.5,413.2 625.6,410.0 624.2,406.6 623.2,403.0 622.7,399.2 622.8,395.3 623.5,391.5 624.6,387.7 626.4,384.2 628.6,380.8 631.3,377.8 634.4,375.1 637.9,372.9 641.7,371.2 645.8,370.0 650.0,369.5 654.3,369.5 658.6,370.1 662.9,371.3 666.9,373.1 670.7,375.5 674.1,378.5 677.1,381.9 679.7,385.7 681.7,389.9 683.1,394.4 683.8,399.0 683.9,403.8 683.3,408.6 682.1,413.3 680.2,417.8 677.6,422.0 674.5,425.9 670.8,429.3 666.7,432.1 662.1,434.4 657.2,436.1 652.1,437.0 646.9,437.3 641.7,436.8 636.5,435.5 631.5,433.5 626.9,430.9 622.6,427.6 618.7,423.6 615.5,419.2 612.9,414.3 610.9,409.0 609.8,403.5 609.4,397.8 609.8,392.1 611.0,386.5 613.0,381.0 615.8,375.9 619.3,371.1 623.4,366.9 628.2,363.2 633.4,360.3 639.0,358.1 645.0,356.6 651.1,356.1 657.2,356.3 663.4,357.5 669.3,359.5 674.9,362.4 680.1,366.0 684.8,370.3 688.9,375.3 692.2,380.9 694.7,386.9 696.4,393.2 697.2,399.8 697.1,406.4 696.0,413.0 694.0,419.4 691.1,425.5 687.4,431.2 682.9,436.4 677.6,440.9 671.8,444.6" fill="none" stroke="rgba(255,255,255,0.15)" stroke-width="3" filter="url(#g)"/><path d="M 668.7,393.5 669.8,396.2 670.4,398.9 670.6,401.8 670.5,404.8 669.9,407.7 668.9,410.5 667.5,413.2 665.6,415.8 663.5,418.0 661.0,420.0 658.2,421.6 655.1,422.8 651.9,423.6 648.6,424.0 645.2,423.8 641.8,423.2 638.5,422.1 635.4,420.5 632.4,418.5 629.8,416.0 627.5,413.2 625.6,410.0 624.2,406.6 623.2,403.0 622.7,399.2 622.8,395.3 623.5,391.5 624.6,387.7 626.4,384.2 628.6,380.8 631.3,377.8 634.4,375.1 637.9,372.9 641.7,371.2 645.8,370.0 650.0,369.5 654.3,369.5 658.6,370.1 662.9,371.3 666.9,373.1 670.7,375.5 674.1,378.5 677.1,381.9 679.7,385.7 681.7,389.9 683.1,394.4 683.8,399.0 683.9,403.8 683.3,408.6 682.1,413.3 680.2,417.8 677.6,422.0 674.5,425.9 670.8,429.3 666.7,432.1 662.1,434.4 657.2,436.1 652.1,437.0 646.9,437.3 641.7,436.8 636.5,435.5 631.5,433.5 626.9,430.9 622.6,427.6 618.7,423.6 615.5,419.2 612.9,414.3 610.9,409.0 609.8,403.5 609.4,397.8 609.8,392.1 611.0,386.5 613.0,381.0 615.8,375.9 619.3,371.1 623.4,366.9 628.2,363.2 633.4,360.3 639.0,358.1 645.0,356.6 651.1,356.1 657.2,356.3 663.4,357.5 669.3,359.5 674.9,362.4 680.1,366.0 684.8,370.3 688.9,375.3 692.2,380.9 694.7,386.9 696.4,393.2 697.2,399.8 697.1,406.4 696.0,413.0 694.0,419.4 691.1,425.5 687.4,431.2 682.9,436.4 677.6,440.9 671.8,444.6" fill="none" stroke="rgba(255,255,255,0.40)" stroke-width="1.2"/><path d="M 668.7,393.5 669.8,396.2 670.4,398.9 670.6,401.8 670.5,404.8 669.9,407.7 668.9,410.5 667.5,413.2 665.6,415.8 663.5,418.0 661.0,420.0 658.2,421.6 655.1,422.8 651.9,423.6 648.6,424.0 645.2,423.8 641.8,423.2 638.5,422.1 635.4,420.5 632.4,418.5 629.8,416.0 627.5,413.2 625.6,410.0 624.2,406.6 623.2,403.0 622.7,399.2 622.8,395.3 623.5,391.5 624.6,387.7 626.4,384.2 628.6,380.8 631.3,377.8 634.4,375.1 637.9,372.9 641.7,371.2 645.8,370.0 650.0,369.5 654.3,369.5 658.6,370.1 662.9,371.3 666.9,373.1 670.7,375.5 674.1,378.5 677.1,381.9 679.7,385.7 681.7,389.9 683.1,394.4 683.8,399.0 683.9,403.8 683.3,408.6 682.1,413.3 680.2,417.8 677.6,422.0 674.5,425.9 670.8,429.3 666.7,432.1 662.1,434.4 657.2,436.1 652.1,437.0 646.9,437.3 641.7,436.8 636.5,435.5 631.5,433.5 626.9,430.9 622.6,427.6 618.7,423.6 615.5,419.2 612.9,414.3 610.9,409.0 609.8,403.5 609.4,397.8 609.8,392.1 611.0,386.5 613.0,381.0 615.8,375.9 619.3,371.1 623.4,366.9 628.2,363.2 633.4,360.3 639.0,358.1 645.0,356.6 651.1,356.1 657.2,356.3 663.4,357.5 669.3,359.5 674.9,362.4 680.1,366.0 684.8,370.3 688.9,375.3 692.2,380.9 694.7,386.9 696.4,393.2 697.2,399.8 697.1,406.4 696.0,413.0 694.0,419.4 691.1,425.5 687.4,431.2 682.9,436.4 677.6,440.9 671.8,444.6" fill="none" stroke="rgba(220,235,255,0.20)" stroke-width="0.6"/><path d="M 650.0,400.0 C 643.9,365.1 731.1,404.4 750.0,400.0" fill="none" stroke="rgba(255,255,255,0.15)" stroke-width="1.5" filter="url(#g)"/><path d="M 650.0,400.0 C 643.9,365.1 731.1,404.4 750.0,400.0" fill="none" stroke="rgba(255,255,255,0.40)" stroke-width="0.6"/><path d="M 650.0,400.0 C 724.6,450.7 448.2,342.1 400.0,400.0" fill="none" stroke="rgba(255,255,255,0.15)" stroke-width="1.5" filter="url(#g)"/><path d="M 650.0,400.0 C 724.6,450.7 448.2,342.1 400.0,400.0" fill="none" stroke="rgba(255,255,255,0.40)" stroke-width="0.6"/></g><g><path d="M80.0,73.2 L80.8,80.0 L80.0,86.8 L79.2,80.0 Z" fill="rgba(255,255,255,0.56)"/><path d="M73.2,80.0 L80.0,79.2 L86.8,80.0 L80.0,80.8 Z" fill="rgba(255,255,255,0.56)"/><path d="M400.0,38.9 L401.3,50.0 L400.0,61.1 L398.7,50.0 Z" fill="rgba(255,255,255,0.52)"/><path d="M388.9,50.0 L400.0,48.7 L411.1,50.0 L400.0,51.3 Z" fill="rgba(255,255,255,0.52)"/><path d="M720.0,74.3 L720.7,80.0 L720.0,85.7 L719.3,80.0 Z" fill="rgba(255,255,255,0.64)"/><path d="M714.3,80.0 L720.0,79.3 L725.7,80.0 L720.0,80.7 Z" fill="rgba(255,255,255,0.64)"/><path d="M50.0,389.0 L51.3,400.0 L50.0,411.0 L48.7,400.0 Z" fill="rgba(255,255,255,0.41)"/><path d="M39.0,400.0 L50.0,398.7 L61.0,400.0 L50.0,401.3 Z" fill="rgba(255,255,255,0.41)"/><path d="M400.0,389.7 L401.2,400.0 L400.0,410.3 L398.8,400.0 Z" fill="rgba(255,255,255,0.41)"/><path d="M389.7,400.0 L400.0,398.8 L410.3,400.0 L400.0,401.2 Z" fill="rgba(255,255,255,0.41)"/><path d="M750.0,388.7 L751.4,400.0 L750.0,411.3 L748.6,400.0 Z" fill="rgba(255,255,255,0.36)"/><path d="M738.7,400.0 L750.0,398.6 L761.3,400.0 L750.0,401.4 Z" fill="rgba(255,255,255,0.36)"/><path d="M80.0,711.9 L81.0,720.0 L80.0,728.1 L79.0,720.0 Z" fill="rgba(255,255,255,0.68)"/><path d="M71.9,720.0 L80.0,719.0 L88.1,720.0 L80.0,721.0 Z" fill="rgba(255,255,255,0.68)"/><path d="M400.0,743.4 L400.8,750.0 L400.0,756.6 L399.2,750.0 Z" fill="rgba(255,255,255,0.48)"/><path d="M393.4,750.0 L400.0,749.2 L406.6,750.0 L400.0,750.8 Z" fill="rgba(255,255,255,0.48)"/><path d="M720.0,712.6 L720.9,720.0 L720.0,727.4 L719.1,720.0 Z" fill="rgba(255,255,255,0.31)"/><path d="M712.6,720.0 L720.0,719.1 L727.4,720.0 L720.0,720.9 Z" fill="rgba(255,255,255,0.31)"/><path d="M400.0,144.6 L400.6,150.0 L400.0,155.4 L399.4,150.0 Z" fill="rgba(255,255,255,0.50)"/><path d="M394.6,150.0 L400.0,149.4 L405.4,150.0 L400.0,150.6 Z" fill="rgba(255,255,255,0.50)"/><path d="M400.0,643.3 L400.8,650.0 L400.0,656.7 L399.2,650.0 Z" fill="rgba(255,255,255,0.70)"/><path d="M393.3,650.0 L400.0,649.2 L406.7,650.0 L400.0,650.8 Z" fill="rgba(255,255,255,0.70)"/><path d="M150.0,392.4 L150.9,400.0 L150.0,407.6 L149.1,400.0 Z" fill="rgba(255,255,255,0.31)"/><path d="M142.4,400.0 L150.0,399.1 L157.6,400.0 L150.0,400.9 Z" fill="rgba(255,255,255,0.31)"/><path d="M650.0,388.5 L651.4,400.0 L650.0,411.5 L648.6,400.0 Z" fill="rgba(255,255,255,0.64)"/><path d="M638.5,400.0 L650.0,398.6 L661.5,400.0 L650.0,401.4 Z" fill="rgba(255,255,255,0.64)"/></g><g><path d="M514.0,617.8 L514.4,621.4 L514.0,625.1 L513.5,621.4 Z" fill="rgba(255,255,255,0.22)"/><path d="M510.3,621.4 L514.0,621.0 L517.7,621.4 L514.0,621.9 Z" fill="rgba(255,255,255,0.22)"/><path d="M650.6,545.3 L651.1,549.0 L650.6,552.7 L650.2,549.0 Z" fill="rgba(255,255,255,0.33)"/><path d="M646.9,549.0 L650.6,548.6 L654.3,549.0 L650.6,549.5 Z" fill="rgba(255,255,255,0.33)"/><path d="M360.9,20.6 L361.3,24.0 L360.9,27.4 L360.5,24.0 Z" fill="rgba(255,255,255,0.21)"/><path d="M357.5,24.0 L360.9,23.6 L364.3,24.0 L360.9,24.4 Z" fill="rgba(255,255,255,0.21)"/><path d="M654.6,430.5 L655.4,437.1 L654.6,443.7 L653.8,437.1 Z" fill="rgba(255,255,255,0.28)"/><path d="M647.9,437.1 L654.6,436.3 L661.2,437.1 L654.6,437.9 Z" fill="rgba(255,255,255,0.28)"/><path d="M104.5,234.5 L105.0,239.0 L104.5,243.5 L104.0,239.0 Z" fill="rgba(255,255,255,0.16)"/><path d="M100.0,239.0 L104.5,238.4 L109.0,239.0 L104.5,239.5 Z" fill="rgba(255,255,255,0.16)"/><path d="M339.1,618.1 L339.7,623.4 L339.1,628.6 L338.4,623.4 Z" fill="rgba(255,255,255,0.18)"/><path d="M333.8,623.4 L339.1,622.7 L344.4,623.4 L339.1,624.0 Z" fill="rgba(255,255,255,0.18)"/><path d="M707.9,470.4 L708.3,473.5 L707.9,476.6 L707.5,473.5 Z" fill="rgba(255,255,255,0.28)"/><path d="M704.8,473.5 L707.9,473.2 L711.0,473.5 L707.9,473.9 Z" fill="rgba(255,255,255,0.28)"/><path d="M203.9,124.0 L204.5,129.1 L203.9,134.3 L203.3,129.1 Z" fill="rgba(255,255,255,0.30)"/><path d="M198.7,129.1 L203.9,128.5 L209.0,129.1 L203.9,129.7 Z" fill="rgba(255,255,255,0.30)"/><path d="M202.8,330.3 L203.6,336.6 L202.8,342.9 L202.1,336.6 Z" fill="rgba(255,255,255,0.17)"/><path d="M196.5,336.6 L202.8,335.8 L209.2,336.6 L202.8,337.3 Z" fill="rgba(255,255,255,0.17)"/><path d="M760.7,65.8 L761.4,71.4 L760.7,77.1 L760.1,71.4 Z" fill="rgba(255,255,255,0.28)"/><path d="M755.1,71.4 L760.7,70.8 L766.4,71.4 L760.7,72.1 Z" fill="rgba(255,255,255,0.28)"/><path d="M771.1,436.2 L771.7,441.2 L771.1,446.1 L770.5,441.2 Z" fill="rgba(255,255,255,0.27)"/><path d="M766.2,441.2 L771.1,440.6 L776.1,441.2 L771.1,441.7 Z" fill="rgba(255,255,255,0.27)"/><path d="M503.1,761.3 L503.6,765.6 L503.1,769.9 L502.6,765.6 Z" fill="rgba(255,255,255,0.15)"/><path d="M498.8,765.6 L503.1,765.1 L507.4,765.6 L503.1,766.1 Z" fill="rgba(255,255,255,0.15)"/><path d="M619.3,275.4 L620.1,282.0 L619.3,288.7 L618.5,282.0 Z" fill="rgba(255,255,255,0.31)"/><path d="M612.6,282.0 L619.3,281.3 L625.9,282.0 L619.3,282.8 Z" fill="rgba(255,255,255,0.31)"/><path d="M606.3,574.1 L606.9,578.7 L606.3,583.4 L605.8,578.7 Z" fill="rgba(255,255,255,0.16)"/><path d="M601.7,578.7 L606.3,578.2 L611.0,578.7 L606.3,579.3 Z" fill="rgba(255,255,255,0.16)"/><path d="M435.0,634.4 L435.4,638.3 L435.0,642.1 L434.5,638.3 Z" fill="rgba(255,255,255,0.34)"/><path d="M431.1,638.3 L435.0,637.8 L438.8,638.3 L435.0,638.7 Z" fill="rgba(255,255,255,0.34)"/><path d="M373.1,542.3 L373.9,548.5 L373.1,554.7 L372.4,548.5 Z" fill="rgba(255,255,255,0.35)"/><path d="M367.0,548.5 L373.1,547.8 L379.3,548.5 L373.1,549.2 Z" fill="rgba(255,255,255,0.35)"/><path d="M68.0,604.6 L68.6,609.9 L68.0,615.2 L67.3,609.9 Z" fill="rgba(255,255,255,0.22)"/><path d="M62.7,609.9 L68.0,609.3 L73.2,609.9 L68.0,610.5 Z" fill="rgba(255,255,255,0.22)"/><path d="M53.3,168.4 L53.7,171.6 L53.3,174.8 L52.9,171.6 Z" fill="rgba(255,255,255,0.38)"/><path d="M50.1,171.6 L53.3,171.2 L56.5,171.6 L53.3,172.0 Z" fill="rgba(255,255,255,0.38)"/><path d="M411.7,766.0 L412.4,771.7 L411.7,777.4 L411.0,771.7 Z" fill="rgba(255,255,255,0.21)"/><path d="M406.0,771.7 L411.7,771.0 L417.4,771.7 L411.7,772.4 Z" fill="rgba(255,255,255,0.21)"/><path d="M592.5,160.5 L593.1,165.2 L592.5,170.0 L591.9,165.2 Z" fill="rgba(255,255,255,0.35)"/><path d="M587.7,165.2 L592.5,164.7 L597.3,165.2 L592.5,165.8 Z" fill="rgba(255,255,255,0.35)"/></g></svg>